G75*
%MOIN*%
%OFA0B0*%
%FSLAX24Y24*%
%IPPOS*%
%LPD*%
%AMOC8*
5,1,8,0,0,1.08239X$1,22.5*
%
%ADD10C,0.0100*%
%ADD11C,0.0000*%
%ADD12C,0.0010*%
%ADD13C,0.0157*%
%ADD14C,0.0040*%
%ADD15C,0.0060*%
%ADD16C,0.0050*%
%ADD17C,0.0030*%
%ADD18C,0.0080*%
%ADD19C,0.0020*%
D10*
X000217Y000247D02*
X000217Y014027D01*
X013997Y014027D01*
X013997Y000247D01*
X000217Y000247D01*
D11*
X012304Y012885D02*
X012306Y012932D01*
X012312Y012978D01*
X012322Y013024D01*
X012335Y013069D01*
X012353Y013112D01*
X012374Y013154D01*
X012398Y013194D01*
X012426Y013231D01*
X012457Y013266D01*
X012491Y013299D01*
X012527Y013328D01*
X012566Y013354D01*
X012607Y013377D01*
X012650Y013396D01*
X012694Y013412D01*
X012739Y013424D01*
X012785Y013432D01*
X012832Y013436D01*
X012878Y013436D01*
X012925Y013432D01*
X012971Y013424D01*
X013016Y013412D01*
X013060Y013396D01*
X013103Y013377D01*
X013144Y013354D01*
X013183Y013328D01*
X013219Y013299D01*
X013253Y013266D01*
X013284Y013231D01*
X013312Y013194D01*
X013336Y013154D01*
X013357Y013112D01*
X013375Y013069D01*
X013388Y013024D01*
X013398Y012978D01*
X013404Y012932D01*
X013406Y012885D01*
X013404Y012838D01*
X013398Y012792D01*
X013388Y012746D01*
X013375Y012701D01*
X013357Y012658D01*
X013336Y012616D01*
X013312Y012576D01*
X013284Y012539D01*
X013253Y012504D01*
X013219Y012471D01*
X013183Y012442D01*
X013144Y012416D01*
X013103Y012393D01*
X013060Y012374D01*
X013016Y012358D01*
X012971Y012346D01*
X012925Y012338D01*
X012878Y012334D01*
X012832Y012334D01*
X012785Y012338D01*
X012739Y012346D01*
X012694Y012358D01*
X012650Y012374D01*
X012607Y012393D01*
X012566Y012416D01*
X012527Y012442D01*
X012491Y012471D01*
X012457Y012504D01*
X012426Y012539D01*
X012398Y012576D01*
X012374Y012616D01*
X012353Y012658D01*
X012335Y012701D01*
X012322Y012746D01*
X012312Y012792D01*
X012306Y012838D01*
X012304Y012885D01*
D12*
X013285Y010562D02*
X013285Y010461D01*
X013335Y010411D01*
X013385Y010461D01*
X013385Y010562D01*
X013432Y010537D02*
X013432Y010436D01*
X013457Y010411D01*
X013507Y010411D01*
X013532Y010436D01*
X013579Y010436D02*
X013604Y010411D01*
X013654Y010411D01*
X013679Y010436D01*
X013579Y010436D02*
X013579Y010537D01*
X013604Y010562D01*
X013654Y010562D01*
X013679Y010537D01*
X013532Y010537D02*
X013507Y010562D01*
X013457Y010562D01*
X013432Y010537D01*
X013790Y006121D02*
X013790Y006021D01*
X013790Y005974D02*
X013790Y005873D01*
X013640Y005873D01*
X013690Y006021D02*
X013640Y006071D01*
X013790Y006071D01*
X012582Y005695D02*
X012482Y005695D01*
X012435Y005695D02*
X012335Y005695D01*
X012335Y005545D01*
X012435Y005545D01*
X012385Y005620D02*
X012335Y005620D01*
X012287Y005595D02*
X012287Y005570D01*
X012262Y005545D01*
X012212Y005545D01*
X012187Y005570D01*
X012140Y005545D02*
X012040Y005545D01*
X012040Y005695D01*
X012140Y005695D01*
X012187Y005670D02*
X012212Y005695D01*
X012262Y005695D01*
X012287Y005670D01*
X012262Y005620D02*
X012287Y005595D01*
X012262Y005620D02*
X012212Y005620D01*
X012187Y005645D01*
X012187Y005670D01*
X012090Y005620D02*
X012040Y005620D01*
X011993Y005620D02*
X011968Y005595D01*
X011893Y005595D01*
X011943Y005595D02*
X011993Y005545D01*
X011993Y005620D02*
X011993Y005670D01*
X011968Y005695D01*
X011893Y005695D01*
X011893Y005545D01*
X011489Y005688D02*
X011389Y005688D01*
X011439Y005688D02*
X011439Y005538D01*
X011341Y005563D02*
X011316Y005538D01*
X011266Y005538D01*
X011241Y005563D01*
X011194Y005538D02*
X011094Y005538D01*
X011094Y005688D01*
X011194Y005688D01*
X011241Y005663D02*
X011241Y005638D01*
X011266Y005613D01*
X011316Y005613D01*
X011341Y005588D01*
X011341Y005563D01*
X011341Y005663D02*
X011316Y005688D01*
X011266Y005688D01*
X011241Y005663D01*
X011144Y005613D02*
X011094Y005613D01*
X011047Y005688D02*
X010947Y005688D01*
X010997Y005688D02*
X010997Y005538D01*
X010620Y004872D02*
X010520Y004872D01*
X010473Y004847D02*
X010473Y004797D01*
X010448Y004772D01*
X010372Y004772D01*
X010372Y004722D02*
X010372Y004872D01*
X010448Y004872D01*
X010473Y004847D01*
X010422Y004772D02*
X010473Y004722D01*
X010520Y004722D02*
X010520Y004747D01*
X010620Y004847D01*
X010620Y004872D01*
X009861Y004858D02*
X009861Y004833D01*
X009836Y004808D01*
X009861Y004783D01*
X009861Y004758D01*
X009836Y004733D01*
X009786Y004733D01*
X009761Y004758D01*
X009713Y004733D02*
X009613Y004733D01*
X009663Y004733D02*
X009663Y004883D01*
X009613Y004833D01*
X009566Y004858D02*
X009541Y004883D01*
X009491Y004883D01*
X009466Y004858D01*
X009466Y004758D01*
X009491Y004733D01*
X009541Y004733D01*
X009566Y004758D01*
X009761Y004858D02*
X009786Y004883D01*
X009836Y004883D01*
X009861Y004858D01*
X009836Y004808D02*
X009811Y004808D01*
X009803Y004142D02*
X009753Y004142D01*
X009728Y004117D01*
X009728Y004017D01*
X009753Y003992D01*
X009803Y003992D01*
X009828Y004017D01*
X009875Y003992D02*
X009975Y003992D01*
X009925Y003992D02*
X009925Y004142D01*
X009875Y004092D01*
X009828Y004117D02*
X009803Y004142D01*
X010022Y004117D02*
X010048Y004142D01*
X010098Y004142D01*
X010123Y004117D01*
X010022Y004017D01*
X010048Y003992D01*
X010098Y003992D01*
X010123Y004017D01*
X010123Y004117D01*
X010022Y004117D02*
X010022Y004017D01*
X010209Y003739D02*
X010284Y003739D01*
X010309Y003714D01*
X010309Y003664D01*
X010284Y003639D01*
X010209Y003639D01*
X010259Y003639D02*
X010309Y003589D01*
X010357Y003614D02*
X010382Y003589D01*
X010432Y003589D01*
X010457Y003614D01*
X010457Y003639D01*
X010432Y003664D01*
X010357Y003664D01*
X010357Y003614D01*
X010357Y003664D02*
X010407Y003714D01*
X010457Y003739D01*
X010209Y003739D02*
X010209Y003589D01*
X010549Y002301D02*
X010524Y002276D01*
X010524Y002176D01*
X010549Y002151D01*
X010599Y002151D01*
X010624Y002176D01*
X010671Y002151D02*
X010771Y002151D01*
X010818Y002151D02*
X010918Y002151D01*
X010868Y002151D02*
X010868Y002301D01*
X010818Y002251D01*
X010721Y002301D02*
X010721Y002151D01*
X010671Y002251D02*
X010721Y002301D01*
X010624Y002276D02*
X010599Y002301D01*
X010549Y002301D01*
X010591Y000662D02*
X010691Y000662D01*
X010738Y000662D02*
X010838Y000511D01*
X010886Y000536D02*
X010911Y000511D01*
X010961Y000511D01*
X010986Y000536D01*
X011033Y000536D02*
X011058Y000511D01*
X011108Y000511D01*
X011133Y000536D01*
X011133Y000637D01*
X011108Y000662D01*
X011058Y000662D01*
X011033Y000637D01*
X011033Y000536D01*
X010986Y000637D02*
X010961Y000662D01*
X010911Y000662D01*
X010886Y000637D01*
X010886Y000536D01*
X010838Y000662D02*
X010738Y000511D01*
X010641Y000511D02*
X010641Y000662D01*
X008673Y001828D02*
X008648Y001803D01*
X008598Y001803D01*
X008573Y001828D01*
X008673Y001928D01*
X008673Y001828D01*
X008673Y001928D02*
X008648Y001953D01*
X008598Y001953D01*
X008573Y001928D01*
X008573Y001828D01*
X008526Y001828D02*
X008526Y001853D01*
X008501Y001878D01*
X008476Y001878D01*
X008501Y001878D02*
X008526Y001903D01*
X008526Y001928D01*
X008501Y001953D01*
X008451Y001953D01*
X008426Y001928D01*
X008378Y001878D02*
X008278Y001878D01*
X008353Y001953D01*
X008353Y001803D01*
X008426Y001828D02*
X008451Y001803D01*
X008501Y001803D01*
X008526Y001828D01*
X008231Y001828D02*
X008206Y001803D01*
X008156Y001803D01*
X008131Y001828D01*
X008131Y001928D01*
X008156Y001953D01*
X008206Y001953D01*
X008231Y001928D01*
X008084Y001928D02*
X008059Y001953D01*
X008009Y001953D01*
X007984Y001928D01*
X007984Y001828D01*
X008009Y001803D01*
X008059Y001803D01*
X008084Y001828D01*
X007269Y001057D02*
X007169Y001057D01*
X007219Y001057D02*
X007219Y001207D01*
X007169Y001157D01*
X007122Y001182D02*
X007097Y001207D01*
X007022Y001207D01*
X007022Y001057D01*
X007097Y001057D01*
X007122Y001082D01*
X007122Y001182D01*
X006975Y001207D02*
X006875Y001207D01*
X006875Y001057D01*
X006975Y001057D01*
X006925Y001132D02*
X006875Y001132D01*
X006827Y001057D02*
X006727Y001057D01*
X006727Y001207D01*
X006313Y001757D02*
X006213Y001757D01*
X006263Y001757D02*
X006263Y001907D01*
X006213Y001857D01*
X006166Y001882D02*
X006141Y001907D01*
X006091Y001907D01*
X006066Y001882D01*
X006066Y001782D01*
X006091Y001757D01*
X006141Y001757D01*
X006166Y001782D01*
X005532Y001761D02*
X005532Y001711D01*
X005507Y001686D01*
X005457Y001686D01*
X005432Y001711D01*
X005385Y001711D02*
X005360Y001686D01*
X005310Y001686D01*
X005285Y001711D01*
X005285Y001811D01*
X005310Y001836D01*
X005360Y001836D01*
X005385Y001811D01*
X005432Y001836D02*
X005432Y001761D01*
X005482Y001786D01*
X005507Y001786D01*
X005532Y001761D01*
X005532Y001836D02*
X005432Y001836D01*
X004719Y001830D02*
X004694Y001805D01*
X004719Y001780D01*
X004719Y001755D01*
X004694Y001730D01*
X004644Y001730D01*
X004619Y001755D01*
X004571Y001755D02*
X004546Y001730D01*
X004496Y001730D01*
X004471Y001755D01*
X004471Y001855D01*
X004496Y001880D01*
X004546Y001880D01*
X004571Y001855D01*
X004619Y001855D02*
X004644Y001880D01*
X004694Y001880D01*
X004719Y001855D01*
X004719Y001830D01*
X004694Y001805D02*
X004669Y001805D01*
X004027Y001752D02*
X004002Y001777D01*
X003952Y001777D01*
X003927Y001752D01*
X003880Y001752D02*
X003855Y001777D01*
X003805Y001777D01*
X003780Y001752D01*
X003780Y001652D01*
X003805Y001627D01*
X003855Y001627D01*
X003880Y001652D01*
X003927Y001627D02*
X004027Y001727D01*
X004027Y001752D01*
X004027Y001627D02*
X003927Y001627D01*
X002723Y001201D02*
X002650Y001201D01*
X002686Y001201D02*
X002686Y001311D01*
X002650Y001274D01*
X002612Y001293D02*
X002594Y001311D01*
X002557Y001311D01*
X002539Y001293D01*
X002539Y001274D01*
X002557Y001256D01*
X002594Y001256D01*
X002612Y001238D01*
X002612Y001219D01*
X002594Y001201D01*
X002557Y001201D01*
X002539Y001219D01*
X002502Y001219D02*
X002502Y001293D01*
X002484Y001311D01*
X002429Y001311D01*
X002429Y001201D01*
X002484Y001201D01*
X002502Y001219D01*
X002391Y001219D02*
X002391Y001293D01*
X002373Y001311D01*
X002336Y001311D01*
X002318Y001293D01*
X002318Y001274D01*
X002336Y001256D01*
X002391Y001256D01*
X002391Y001219D02*
X002373Y001201D01*
X002336Y001201D01*
X002318Y001219D01*
X002281Y001201D02*
X002281Y001311D01*
X002244Y001274D01*
X002208Y001311D01*
X002208Y001201D01*
X002170Y001219D02*
X002152Y001201D01*
X002115Y001201D01*
X002097Y001219D01*
X002115Y001256D02*
X002152Y001256D01*
X002170Y001238D01*
X002170Y001219D01*
X002115Y001256D02*
X002097Y001274D01*
X002097Y001293D01*
X002115Y001311D01*
X002152Y001311D01*
X002170Y001293D01*
X002060Y001201D02*
X001987Y001201D01*
X001987Y001311D01*
X000460Y001094D02*
X000310Y001094D01*
X000385Y001019D01*
X000385Y001119D01*
X000335Y000972D02*
X000310Y000947D01*
X000310Y000897D01*
X000335Y000872D01*
X000435Y000872D01*
X000460Y000897D01*
X000460Y000947D01*
X000435Y000972D01*
X000420Y002136D02*
X000420Y002211D01*
X000395Y002237D01*
X000345Y002237D01*
X000320Y002211D01*
X000320Y002136D01*
X000470Y002136D01*
X000420Y002186D02*
X000470Y002237D01*
X000470Y002284D02*
X000470Y002384D01*
X000470Y002334D02*
X000320Y002334D01*
X000370Y002284D01*
X001036Y004132D02*
X001036Y004282D01*
X001111Y004282D01*
X001136Y004257D01*
X001136Y004207D01*
X001111Y004182D01*
X001036Y004182D01*
X001086Y004182D02*
X001136Y004132D01*
X001184Y004132D02*
X001284Y004232D01*
X001284Y004257D01*
X001259Y004282D01*
X001209Y004282D01*
X001184Y004257D01*
X001184Y004132D02*
X001284Y004132D01*
X002504Y003513D02*
X002529Y003538D01*
X002554Y003538D01*
X002579Y003513D01*
X002604Y003538D01*
X002629Y003538D01*
X002654Y003513D01*
X002654Y003463D01*
X002629Y003438D01*
X002654Y003390D02*
X002604Y003340D01*
X002604Y003365D02*
X002604Y003290D01*
X002654Y003290D02*
X002504Y003290D01*
X002504Y003365D01*
X002529Y003390D01*
X002579Y003390D01*
X002604Y003365D01*
X002529Y003438D02*
X002504Y003463D01*
X002504Y003513D01*
X002579Y003513D02*
X002579Y003488D01*
X004397Y003914D02*
X004422Y003889D01*
X004472Y003889D01*
X004497Y003914D01*
X004544Y003914D02*
X004569Y003889D01*
X004619Y003889D01*
X004644Y003914D01*
X004644Y003939D01*
X004619Y003964D01*
X004544Y003964D01*
X004544Y003914D01*
X004544Y003964D02*
X004594Y004014D01*
X004644Y004039D01*
X004497Y004014D02*
X004472Y004039D01*
X004422Y004039D01*
X004397Y004014D01*
X004397Y003914D01*
X004454Y005431D02*
X004555Y005431D01*
X004652Y005456D02*
X004652Y005606D01*
X004602Y005606D02*
X004702Y005606D01*
X004749Y005606D02*
X004849Y005456D01*
X004749Y005456D02*
X004849Y005606D01*
X005081Y005671D02*
X005081Y005821D01*
X005156Y005821D01*
X005181Y005796D01*
X005181Y005746D01*
X005156Y005721D01*
X005081Y005721D01*
X005131Y005721D02*
X005181Y005671D01*
X005228Y005746D02*
X005328Y005746D01*
X005303Y005821D02*
X005228Y005746D01*
X005303Y005671D02*
X005303Y005821D01*
X005941Y005835D02*
X006091Y005835D01*
X006091Y005785D02*
X006091Y005885D01*
X005991Y005785D02*
X005941Y005835D01*
X005966Y005738D02*
X006016Y005738D01*
X006041Y005713D01*
X006041Y005638D01*
X006091Y005638D02*
X005941Y005638D01*
X005941Y005713D01*
X005966Y005738D01*
X006041Y005688D02*
X006091Y005738D01*
X006066Y005591D02*
X005966Y005591D01*
X005941Y005566D01*
X005941Y005516D01*
X005966Y005491D01*
X006066Y005491D01*
X006091Y005516D01*
X006091Y005566D01*
X006066Y005591D01*
X006066Y005443D02*
X006091Y005418D01*
X006091Y005368D01*
X006066Y005343D01*
X006091Y005296D02*
X005941Y005296D01*
X005966Y005343D02*
X005991Y005343D01*
X006016Y005368D01*
X006016Y005418D01*
X006041Y005443D01*
X006066Y005443D01*
X005966Y005443D02*
X005941Y005418D01*
X005941Y005368D01*
X005966Y005343D01*
X006091Y005296D02*
X005941Y005196D01*
X006091Y005196D01*
X006091Y005149D02*
X006091Y005049D01*
X005941Y005049D01*
X005941Y005149D01*
X006016Y005099D02*
X006016Y005049D01*
X006041Y005002D02*
X006066Y005002D01*
X006091Y004976D01*
X006091Y004926D01*
X006066Y004901D01*
X006091Y004854D02*
X005941Y004854D01*
X005966Y004901D02*
X005991Y004901D01*
X006016Y004926D01*
X006016Y004976D01*
X006041Y005002D01*
X005966Y005002D02*
X005941Y004976D01*
X005941Y004926D01*
X005966Y004901D01*
X006091Y004854D02*
X005941Y004754D01*
X006091Y004754D01*
X006066Y004707D02*
X005941Y004707D01*
X005941Y004607D02*
X006066Y004607D01*
X006091Y004632D01*
X006091Y004682D01*
X006066Y004707D01*
X006066Y004560D02*
X006091Y004535D01*
X006091Y004484D01*
X006066Y004459D01*
X006016Y004484D02*
X006016Y004535D01*
X006041Y004560D01*
X006066Y004560D01*
X006016Y004484D02*
X005991Y004459D01*
X005966Y004459D01*
X005941Y004484D01*
X005941Y004535D01*
X005966Y004560D01*
X007480Y004962D02*
X007505Y004937D01*
X007555Y004937D01*
X007580Y004962D01*
X007580Y004987D01*
X007555Y005012D01*
X007530Y005012D01*
X007555Y005012D02*
X007580Y005037D01*
X007580Y005062D01*
X007555Y005087D01*
X007505Y005087D01*
X007480Y005062D01*
X007627Y005062D02*
X007652Y005087D01*
X007702Y005087D01*
X007727Y005062D01*
X007727Y005037D01*
X007627Y004937D01*
X007727Y004937D01*
X007775Y004937D02*
X007800Y004937D01*
X007800Y004962D01*
X007775Y004962D01*
X007775Y004937D01*
X007848Y004937D02*
X007848Y004962D01*
X007948Y005062D01*
X007948Y005087D01*
X007848Y005087D01*
X007996Y005012D02*
X007996Y004962D01*
X008021Y004937D01*
X008071Y004937D01*
X008096Y004962D01*
X008096Y004987D01*
X008071Y005012D01*
X007996Y005012D01*
X008046Y005062D01*
X008096Y005087D01*
X008143Y005062D02*
X008143Y005037D01*
X008168Y005012D01*
X008218Y005012D01*
X008243Y004987D01*
X008243Y004962D01*
X008218Y004937D01*
X008168Y004937D01*
X008143Y004962D01*
X008143Y004987D01*
X008168Y005012D01*
X008218Y005012D02*
X008243Y005037D01*
X008243Y005062D01*
X008218Y005087D01*
X008168Y005087D01*
X008143Y005062D01*
X004407Y005606D02*
X004307Y005606D01*
X004357Y005606D02*
X004357Y005456D01*
X004260Y005456D02*
X004210Y005506D01*
X004235Y005506D02*
X004160Y005506D01*
X004160Y005456D02*
X004160Y005606D01*
X004235Y005606D01*
X004260Y005581D01*
X004260Y005531D01*
X004235Y005506D01*
X004113Y005531D02*
X004012Y005531D01*
X004012Y005556D02*
X004012Y005456D01*
X003965Y005481D02*
X003965Y005606D01*
X004012Y005556D02*
X004063Y005606D01*
X004113Y005556D01*
X004113Y005456D01*
X003965Y005481D02*
X003940Y005456D01*
X003890Y005456D01*
X003865Y005481D01*
X003865Y005606D01*
X003809Y005627D02*
X003709Y005477D01*
X003661Y005477D02*
X003611Y005527D01*
X003636Y005527D02*
X003561Y005527D01*
X003561Y005477D02*
X003561Y005627D01*
X003636Y005627D01*
X003661Y005602D01*
X003661Y005552D01*
X003636Y005527D01*
X003709Y005627D02*
X003809Y005477D01*
X003514Y005452D02*
X003414Y005452D01*
X003317Y005477D02*
X003317Y005627D01*
X003267Y005627D02*
X003367Y005627D01*
X003219Y005602D02*
X003219Y005552D01*
X003194Y005527D01*
X003119Y005527D01*
X003119Y005477D02*
X003119Y005627D01*
X003194Y005627D01*
X003219Y005602D01*
X003169Y005527D02*
X003219Y005477D01*
X003072Y005477D02*
X003072Y005577D01*
X003022Y005627D01*
X002972Y005577D01*
X002972Y005477D01*
X002925Y005502D02*
X002925Y005627D01*
X002972Y005552D02*
X003072Y005552D01*
X002925Y005502D02*
X002900Y005477D01*
X002850Y005477D01*
X002825Y005502D01*
X002825Y005627D01*
X007211Y013730D02*
X007261Y013730D01*
X007286Y013755D01*
X007286Y013805D01*
X007236Y013805D01*
X007286Y013855D02*
X007261Y013880D01*
X007211Y013880D01*
X007186Y013855D01*
X007186Y013755D01*
X007211Y013730D01*
X007333Y013730D02*
X007333Y013880D01*
X007433Y013730D01*
X007433Y013880D01*
X007480Y013880D02*
X007555Y013880D01*
X007580Y013855D01*
X007580Y013755D01*
X007555Y013730D01*
X007480Y013730D01*
X007480Y013880D01*
X012532Y005695D02*
X012532Y005545D01*
X013441Y004345D02*
X013416Y004320D01*
X013416Y004220D01*
X013441Y004194D01*
X013491Y004194D01*
X013517Y004220D01*
X013564Y004220D02*
X013589Y004194D01*
X013639Y004194D01*
X013664Y004220D01*
X013664Y004320D01*
X013639Y004345D01*
X013589Y004345D01*
X013564Y004320D01*
X013564Y004295D01*
X013589Y004270D01*
X013664Y004270D01*
X013517Y004320D02*
X013491Y004345D01*
X013441Y004345D01*
X012737Y003681D02*
X012737Y003656D01*
X012712Y003631D01*
X012662Y003631D01*
X012637Y003656D01*
X012637Y003681D01*
X012662Y003706D01*
X012712Y003706D01*
X012737Y003681D01*
X012712Y003631D02*
X012737Y003606D01*
X012737Y003581D01*
X012712Y003556D01*
X012662Y003556D01*
X012637Y003581D01*
X012637Y003606D01*
X012662Y003631D01*
X012590Y003681D02*
X012565Y003706D01*
X012515Y003706D01*
X012490Y003681D01*
X012490Y003581D01*
X012515Y003556D01*
X012565Y003556D01*
X012590Y003581D01*
D13*
X003035Y002412D03*
D14*
X002956Y002333D02*
X001696Y002333D01*
X001696Y000876D01*
X002956Y000876D01*
X002956Y002333D01*
D15*
X003299Y001310D02*
X003299Y001074D01*
X003771Y001074D02*
X003771Y001310D01*
X004044Y001293D02*
X004044Y001057D01*
X004517Y001057D02*
X004517Y001293D01*
X004883Y001299D02*
X004883Y001063D01*
X005355Y001063D02*
X005355Y001299D01*
X005697Y001336D02*
X005697Y001100D01*
X006169Y001100D02*
X006169Y001336D01*
X004810Y003322D02*
X004574Y003322D01*
X004574Y003795D02*
X004810Y003795D01*
X004893Y004982D02*
X004893Y005218D01*
X005365Y005218D02*
X005365Y004982D01*
X003221Y003703D02*
X003221Y003467D01*
X002748Y003467D02*
X002748Y003703D01*
X001439Y003680D02*
X001439Y003444D01*
X000967Y003444D02*
X000967Y003680D01*
X000910Y002547D02*
X001147Y002547D01*
X001147Y002074D02*
X000910Y002074D01*
X000911Y001231D02*
X001147Y001231D01*
X001147Y000759D02*
X000911Y000759D01*
X009472Y005279D02*
X009472Y005515D01*
X009945Y005515D02*
X009945Y005279D01*
X010287Y005279D02*
X010287Y005515D01*
X010760Y005515D02*
X010760Y005279D01*
X010760Y004462D02*
X010524Y004462D01*
X010524Y003990D02*
X010760Y003990D01*
X010979Y003721D02*
X011215Y003721D01*
X011215Y003249D02*
X010979Y003249D01*
X010937Y002057D02*
X010701Y002057D01*
X010701Y001585D02*
X010937Y001585D01*
X012191Y003745D02*
X012427Y003745D01*
X012427Y004217D02*
X012191Y004217D01*
X013085Y003776D02*
X013085Y003539D01*
X013557Y003539D02*
X013557Y003776D01*
D16*
X011193Y001348D02*
X011193Y000719D01*
X010405Y000719D01*
X010405Y001191D01*
X010563Y001348D01*
X011193Y001348D01*
X010563Y001348D02*
X010405Y001348D01*
X010405Y001191D01*
X009589Y001633D02*
X009589Y004349D01*
X006872Y004349D01*
X006872Y001633D01*
X009589Y001633D01*
X008258Y005161D02*
X006744Y005161D01*
X006744Y005911D01*
X008258Y005911D01*
X008258Y005182D01*
X008258Y005175D01*
X008258Y005161D01*
X008258Y005175D02*
X008265Y005175D01*
D17*
X007087Y004062D02*
X007089Y004079D01*
X007095Y004095D01*
X007104Y004109D01*
X007116Y004121D01*
X007131Y004129D01*
X007147Y004134D01*
X007164Y004135D01*
X007181Y004132D01*
X007196Y004125D01*
X007210Y004115D01*
X007221Y004102D01*
X007229Y004087D01*
X007233Y004070D01*
X007233Y004054D01*
X007229Y004037D01*
X007221Y004022D01*
X007210Y004009D01*
X007197Y003999D01*
X007181Y003992D01*
X007164Y003989D01*
X007147Y003990D01*
X007131Y003995D01*
X007116Y004003D01*
X007104Y004015D01*
X007095Y004029D01*
X007089Y004045D01*
X007087Y004062D01*
D18*
X005822Y005092D02*
X005822Y005131D01*
X005665Y005131D01*
X005665Y005092D01*
X005822Y005092D01*
X004781Y005130D02*
X004781Y004630D01*
X004531Y004380D01*
X004031Y004380D01*
X003781Y004630D01*
X003531Y004380D01*
X003031Y004380D01*
X002781Y004630D01*
X002781Y005130D01*
X003031Y005380D01*
X003531Y005380D01*
X003781Y005130D01*
X004031Y005380D01*
X004531Y005380D01*
X004781Y005130D01*
X006895Y000994D02*
X006895Y000813D01*
X007017Y000905D01*
X006895Y000813D02*
X006895Y000631D01*
X007017Y000727D02*
X006901Y000803D01*
X010859Y004719D02*
X010859Y005219D01*
X011109Y005469D01*
X011609Y005469D01*
X011859Y005219D01*
X012109Y005469D01*
X012609Y005469D01*
X012859Y005219D01*
X012859Y004719D01*
X012609Y004469D01*
X012109Y004469D01*
X011859Y004719D01*
X011609Y004469D01*
X011109Y004469D01*
X010859Y004719D01*
D19*
X012526Y005784D02*
X012550Y005760D01*
X012573Y005760D01*
X012597Y005784D01*
X012597Y005900D01*
X012620Y005900D02*
X012573Y005900D01*
X012674Y005900D02*
X012744Y005900D01*
X012767Y005877D01*
X012767Y005830D01*
X012744Y005807D01*
X012674Y005807D01*
X012674Y005760D02*
X012674Y005900D01*
X012821Y005877D02*
X012845Y005900D01*
X012891Y005900D01*
X012915Y005877D01*
X012915Y005854D01*
X012891Y005830D01*
X012915Y005807D01*
X012915Y005784D01*
X012891Y005760D01*
X012845Y005760D01*
X012821Y005784D01*
X012868Y005830D02*
X012891Y005830D01*
X003789Y005749D02*
X003696Y005749D01*
X003742Y005749D02*
X003742Y005889D01*
X003696Y005842D01*
X003642Y005819D02*
X003642Y005866D01*
X003618Y005889D01*
X003548Y005889D01*
X003548Y005749D01*
X003548Y005796D02*
X003618Y005796D01*
X003642Y005819D01*
X003494Y005889D02*
X003448Y005889D01*
X003471Y005889D02*
X003471Y005772D01*
X003448Y005749D01*
X003424Y005749D01*
X003401Y005772D01*
M02*
