G75*
%MOIN*%
%OFA0B0*%
%FSLAX24Y24*%
%IPPOS*%
%LPD*%
%AMOC8*
5,1,8,0,0,1.08239X$1,22.5*
%
%ADD10C,0.0500*%
%ADD11R,0.0500X0.0500*%
%ADD12R,0.0315X0.0315*%
%ADD13R,0.0315X0.0472*%
%ADD14R,0.0472X0.0315*%
%ADD15C,0.0740*%
%ADD16R,0.0531X0.0571*%
%ADD17R,0.0531X0.0315*%
%ADD18R,0.0453X0.0965*%
%ADD19R,0.0217X0.0249*%
%ADD20C,0.0106*%
%ADD21R,0.0984X0.2008*%
%ADD22C,0.7008*%
%ADD23C,0.0100*%
%ADD24C,0.0357*%
D10*
X012229Y001206D02*
X012142Y001699D01*
X012229Y001206D02*
X012315Y000714D01*
X012539Y002301D02*
X013031Y002214D01*
X013523Y002127D01*
D11*
G36*
X013233Y001925D02*
X012742Y002012D01*
X012829Y002503D01*
X013320Y002416D01*
X013233Y001925D01*
G37*
G36*
X012027Y000917D02*
X011940Y001408D01*
X012431Y001495D01*
X012518Y001004D01*
X012027Y000917D01*
G37*
D12*
X002810Y004276D03*
X002220Y004276D03*
D13*
X002165Y003724D03*
X002873Y003724D03*
D14*
X007242Y004346D03*
X007242Y005055D03*
X009669Y003932D03*
X009669Y003223D03*
X010032Y001875D03*
X010032Y001167D03*
D15*
X011359Y004969D03*
X012359Y004969D03*
X004281Y004880D03*
X003281Y004880D03*
D16*
X008347Y003940D03*
D17*
X008345Y003421D03*
D18*
X008914Y003743D03*
D19*
X008879Y003074D03*
X008367Y003074D03*
D20*
X008403Y002419D03*
X008600Y002419D03*
X008796Y002419D03*
X008796Y002222D03*
X008796Y002025D03*
X008600Y002025D03*
X008600Y002222D03*
X008403Y002222D03*
X008403Y002025D03*
D21*
X010786Y010217D03*
X001770Y010217D03*
D22*
X006278Y010217D03*
D23*
X000467Y012030D02*
X000467Y000497D01*
X001345Y000497D01*
X001332Y002381D01*
X003134Y002365D01*
X003147Y000497D01*
X011828Y000497D01*
X011828Y001407D01*
X011775Y001707D01*
X011806Y001847D01*
X011828Y001878D01*
X011828Y002537D01*
X011626Y002537D01*
X011561Y002536D01*
X011560Y002537D01*
X011559Y002537D01*
X011513Y002583D01*
X011466Y002629D01*
X011466Y002630D01*
X011465Y002630D01*
X011465Y002696D01*
X011465Y002732D01*
X011428Y002643D01*
X011347Y002562D01*
X011241Y002518D01*
X011126Y002518D01*
X011100Y002529D01*
X010794Y002274D01*
X010752Y002233D01*
X010744Y002233D01*
X010737Y002227D01*
X010678Y002233D01*
X010225Y002233D01*
X010224Y002229D01*
X010143Y002148D01*
X010129Y002143D01*
X010314Y002143D01*
X010379Y002078D01*
X010379Y001672D01*
X010314Y001608D01*
X009751Y001608D01*
X009686Y001672D01*
X009686Y001814D01*
X009525Y001975D01*
X009532Y001529D01*
X009540Y001526D01*
X009621Y001445D01*
X009653Y001368D01*
X009656Y001382D01*
X009676Y001416D01*
X009704Y001444D01*
X009738Y001464D01*
X009776Y001474D01*
X010004Y001474D01*
X010004Y001195D01*
X010004Y001138D01*
X010061Y001138D01*
X010061Y000859D01*
X010288Y000859D01*
X010327Y000869D01*
X010361Y000889D01*
X010389Y000917D01*
X010408Y000951D01*
X010419Y000989D01*
X010419Y001138D01*
X010061Y001138D01*
X010061Y001195D01*
X010419Y001195D01*
X010419Y001344D01*
X010408Y001382D01*
X010389Y001416D01*
X010361Y001444D01*
X010327Y001464D01*
X010288Y001474D01*
X010061Y001474D01*
X010061Y001195D01*
X010004Y001195D01*
X009653Y001195D01*
X009621Y001118D01*
X009540Y001037D01*
X009498Y001019D01*
X009504Y001014D01*
X009542Y000921D01*
X009612Y000897D01*
X009670Y000777D01*
X009626Y000652D01*
X009507Y000595D01*
X009436Y000619D01*
X009423Y000606D01*
X009317Y000562D01*
X009202Y000562D01*
X009096Y000606D01*
X009015Y000687D01*
X008971Y000793D01*
X008971Y000908D01*
X009015Y001014D01*
X009096Y001095D01*
X009138Y001112D01*
X009132Y001118D01*
X009088Y001224D01*
X009088Y001339D01*
X009132Y001445D01*
X009212Y001525D01*
X009207Y001865D01*
X008867Y001865D01*
X008864Y001862D01*
X008760Y001862D01*
X008760Y001110D01*
X008777Y001102D01*
X008858Y001021D01*
X008902Y000915D01*
X008902Y000801D01*
X008858Y000695D01*
X008777Y000613D01*
X008671Y000570D01*
X008556Y000570D01*
X008450Y000613D01*
X008404Y000659D01*
X008354Y000609D01*
X008248Y000565D01*
X008133Y000565D01*
X008034Y000607D01*
X008014Y000586D01*
X007968Y000540D01*
X007967Y000540D01*
X007966Y000539D01*
X007901Y000539D01*
X007703Y000537D01*
X007702Y000536D01*
X007637Y000536D01*
X007571Y000536D01*
X007571Y000536D01*
X007002Y000536D01*
X006908Y000630D01*
X006908Y002062D01*
X006408Y002062D01*
X006314Y002156D01*
X006314Y003808D01*
X006408Y003902D01*
X007476Y003902D01*
X007476Y003956D01*
X007476Y004038D01*
X007271Y004038D01*
X007271Y004317D01*
X007213Y004317D01*
X006856Y004317D01*
X006856Y004169D01*
X006866Y004130D01*
X006886Y004096D01*
X006914Y004068D01*
X006948Y004049D01*
X006986Y004038D01*
X007213Y004038D01*
X007213Y004317D01*
X007213Y004375D01*
X007213Y004653D01*
X006986Y004653D01*
X006948Y004643D01*
X006914Y004623D01*
X006886Y004595D01*
X006866Y004561D01*
X006856Y004523D01*
X006856Y004375D01*
X007213Y004375D01*
X007271Y004375D01*
X007271Y004653D01*
X007474Y004653D01*
X007474Y004787D01*
X006960Y004787D01*
X006896Y004851D01*
X006896Y005258D01*
X006908Y005270D01*
X005668Y005270D01*
X004571Y005270D01*
X004688Y005152D01*
X004761Y004976D01*
X004761Y004785D01*
X004688Y004608D01*
X004553Y004473D01*
X004462Y004435D01*
X006246Y004434D01*
X006248Y004437D01*
X006329Y004518D01*
X006435Y004562D01*
X006549Y004562D01*
X006655Y004518D01*
X006737Y004437D01*
X006780Y004331D01*
X006780Y004216D01*
X006737Y004110D01*
X006655Y004029D01*
X006549Y003985D01*
X006435Y003985D01*
X006329Y004029D01*
X006248Y004110D01*
X006246Y004114D01*
X003078Y004117D01*
X003078Y004073D01*
X003075Y004070D01*
X003077Y004070D01*
X003141Y004006D01*
X003141Y003442D01*
X003077Y003378D01*
X002670Y003378D01*
X002606Y003442D01*
X002606Y004006D01*
X002609Y004008D01*
X002607Y004008D01*
X002543Y004073D01*
X002543Y004479D01*
X002607Y004543D01*
X002940Y004543D01*
X002874Y004608D01*
X002801Y004785D01*
X002801Y004976D01*
X002874Y005152D01*
X002992Y005270D01*
X002532Y005270D01*
X002532Y005270D01*
X002532Y005270D01*
X002457Y005270D01*
X002399Y005270D01*
X002399Y005270D01*
X002395Y005270D01*
X002395Y005112D01*
X002399Y005110D01*
X002480Y005029D01*
X002524Y004923D01*
X002524Y004808D01*
X002480Y004702D01*
X002399Y004621D01*
X002389Y004617D01*
X002387Y004543D01*
X002423Y004543D01*
X002487Y004479D01*
X002487Y004073D01*
X002451Y004037D01*
X002462Y004018D01*
X002472Y003980D01*
X002472Y003753D01*
X002194Y003753D01*
X002194Y003695D01*
X002136Y003695D01*
X002194Y003695D01*
X002472Y003695D01*
X002606Y003695D01*
X002606Y003793D02*
X002472Y003793D01*
X002472Y003695D02*
X002472Y003468D01*
X002462Y003430D01*
X002442Y003396D01*
X002414Y003368D01*
X002380Y003348D01*
X002342Y003338D01*
X002194Y003338D01*
X002194Y003695D01*
X002165Y003724D02*
X002171Y003193D01*
X003415Y003194D01*
X003418Y003917D01*
X007228Y003913D01*
X007242Y004346D01*
X007213Y004384D02*
X007271Y004384D01*
X007271Y004286D02*
X007213Y004286D01*
X007213Y004187D02*
X007271Y004187D01*
X007271Y004089D02*
X007213Y004089D01*
X007476Y003990D02*
X006563Y003990D01*
X006421Y003990D02*
X003141Y003990D01*
X003141Y003892D02*
X006398Y003892D01*
X006314Y003793D02*
X003141Y003793D01*
X003141Y003695D02*
X006314Y003695D01*
X006314Y003596D02*
X003141Y003596D01*
X003141Y003498D02*
X006314Y003498D01*
X006314Y003399D02*
X003098Y003399D01*
X003011Y003078D02*
X002897Y003078D01*
X002791Y003034D01*
X002710Y002953D01*
X002709Y002950D01*
X002130Y002952D01*
X002128Y002957D01*
X002047Y003038D01*
X001941Y003082D01*
X001826Y003082D01*
X001720Y003038D01*
X001639Y002957D01*
X001595Y002851D01*
X001595Y002736D01*
X001639Y002630D01*
X001720Y002549D01*
X001826Y002505D01*
X001941Y002505D01*
X002047Y002549D01*
X002128Y002630D01*
X002129Y002632D01*
X002708Y002630D01*
X002710Y002626D01*
X002791Y002545D01*
X002897Y002501D01*
X003011Y002501D01*
X003117Y002545D01*
X003199Y002626D01*
X003243Y002732D01*
X003243Y002847D01*
X003199Y002953D01*
X003117Y003034D01*
X003011Y003078D01*
X003146Y003005D02*
X006314Y003005D01*
X006314Y002907D02*
X003217Y002907D01*
X003243Y002808D02*
X006314Y002808D01*
X006314Y002710D02*
X003234Y002710D01*
X003184Y002611D02*
X006314Y002611D01*
X006314Y002513D02*
X003041Y002513D01*
X002867Y002513D02*
X001960Y002513D01*
X001806Y002513D02*
X000467Y002513D01*
X000467Y002611D02*
X001657Y002611D01*
X001606Y002710D02*
X000467Y002710D01*
X000467Y002808D02*
X001595Y002808D01*
X001618Y002907D02*
X000467Y002907D01*
X000467Y003005D02*
X001688Y003005D01*
X001883Y002793D02*
X002954Y002789D01*
X002724Y002611D02*
X002109Y002611D01*
X002079Y003005D02*
X002763Y003005D01*
X002649Y003399D02*
X002445Y003399D01*
X002472Y003498D02*
X002606Y003498D01*
X002606Y003596D02*
X002472Y003596D01*
X002194Y003596D02*
X002136Y003596D01*
X002136Y003498D02*
X002194Y003498D01*
X002194Y003399D02*
X002136Y003399D01*
X002136Y003338D02*
X002136Y003695D01*
X001857Y003695D01*
X000467Y003695D01*
X000467Y003793D02*
X001857Y003793D01*
X001857Y003753D02*
X002136Y003753D01*
X002136Y003695D01*
X002165Y003724D02*
X001720Y003718D01*
X001720Y004183D01*
X001726Y004850D01*
X001726Y004849D01*
X001947Y004877D02*
X000467Y004877D01*
X000467Y004975D02*
X001968Y004975D01*
X001947Y004923D02*
X001947Y004808D01*
X001991Y004702D01*
X002069Y004624D01*
X002067Y004543D01*
X002017Y004543D01*
X001952Y004479D01*
X001952Y004101D01*
X001949Y004100D01*
X001915Y004080D01*
X001887Y004052D01*
X001868Y004018D01*
X001857Y003980D01*
X001857Y003753D01*
X001857Y003695D02*
X001857Y003468D01*
X001868Y003430D01*
X001887Y003396D01*
X001915Y003368D01*
X001949Y003348D01*
X001988Y003338D01*
X002136Y003338D01*
X001885Y003399D02*
X000467Y003399D01*
X000467Y003301D02*
X006314Y003301D01*
X006314Y003202D02*
X000467Y003202D01*
X000467Y003104D02*
X006314Y003104D01*
X006314Y002414D02*
X000467Y002414D01*
X000467Y002316D02*
X001333Y002316D01*
X001333Y002217D02*
X000467Y002217D01*
X000467Y002119D02*
X001334Y002119D01*
X001335Y002020D02*
X000467Y002020D01*
X000467Y001922D02*
X001335Y001922D01*
X001336Y001823D02*
X000467Y001823D01*
X000467Y001725D02*
X001337Y001725D01*
X001338Y001626D02*
X000467Y001626D01*
X000467Y001528D02*
X001338Y001528D01*
X001339Y001429D02*
X000467Y001429D01*
X000467Y001331D02*
X001340Y001331D01*
X001340Y001232D02*
X000467Y001232D01*
X000467Y001134D02*
X001341Y001134D01*
X001342Y001035D02*
X000467Y001035D01*
X000467Y000937D02*
X001342Y000937D01*
X001343Y000838D02*
X000467Y000838D01*
X000467Y000740D02*
X001344Y000740D01*
X001344Y000641D02*
X000467Y000641D01*
X000467Y000543D02*
X001345Y000543D01*
X001015Y001526D02*
X001015Y001713D01*
X000467Y003498D02*
X001857Y003498D01*
X001857Y003596D02*
X000467Y003596D01*
X000467Y003892D02*
X001857Y003892D01*
X001860Y003990D02*
X000467Y003990D01*
X000467Y004089D02*
X001930Y004089D01*
X001952Y004187D02*
X000467Y004187D01*
X000467Y004286D02*
X001952Y004286D01*
X001952Y004384D02*
X000467Y004384D01*
X000467Y004483D02*
X001956Y004483D01*
X002068Y004581D02*
X000467Y004581D01*
X000467Y004680D02*
X002013Y004680D01*
X001959Y004778D02*
X000467Y004778D01*
X000467Y005074D02*
X002036Y005074D01*
X002072Y005110D02*
X001991Y005029D01*
X001947Y004923D01*
X002072Y005110D02*
X002075Y005112D01*
X002075Y005250D01*
X002074Y005251D01*
X002074Y005270D01*
X001704Y005270D01*
X001610Y005363D01*
X001610Y009103D01*
X001233Y009103D01*
X001168Y009168D01*
X001168Y011267D01*
X001233Y011331D01*
X002308Y011331D01*
X002372Y011267D01*
X002372Y009168D01*
X002308Y009103D01*
X001930Y009103D01*
X001930Y005590D01*
X002175Y005590D01*
X002180Y005594D01*
X002231Y005590D01*
X002281Y005596D01*
X002290Y005590D01*
X002520Y005590D01*
X005535Y005590D01*
X007572Y005590D01*
X007573Y005590D01*
X007638Y005590D01*
X007703Y005590D01*
X007704Y005589D01*
X007705Y005589D01*
X007751Y005542D01*
X007797Y005496D01*
X007797Y005495D01*
X007798Y005494D01*
X007797Y005429D01*
X007797Y005363D01*
X007797Y005363D01*
X007794Y005110D01*
X007794Y005109D01*
X007795Y005107D01*
X007795Y005098D01*
X007801Y005090D01*
X007794Y005035D01*
X007794Y004715D01*
X008963Y004715D01*
X008966Y004712D01*
X009133Y004712D01*
X009653Y005381D01*
X009653Y005392D01*
X009693Y005432D01*
X009728Y005476D01*
X009739Y005478D01*
X009747Y005486D01*
X009803Y005486D01*
X009859Y005493D01*
X009868Y005486D01*
X010107Y005486D01*
X010169Y005489D01*
X010173Y005486D01*
X010669Y005486D01*
X010669Y005486D01*
X010735Y005486D01*
X010801Y005486D01*
X010801Y005485D01*
X010802Y005485D01*
X010848Y005439D01*
X010895Y005392D01*
X010895Y005392D01*
X010895Y005391D01*
X010895Y005325D01*
X010895Y005259D01*
X010895Y005259D01*
X010894Y005101D01*
X010952Y005241D01*
X011087Y005376D01*
X011264Y005449D01*
X011455Y005449D01*
X011631Y005376D01*
X011766Y005241D01*
X011839Y005065D01*
X011839Y004874D01*
X011766Y004697D01*
X011631Y004562D01*
X011455Y004489D01*
X011264Y004489D01*
X011087Y004562D01*
X010952Y004697D01*
X010893Y004840D01*
X010890Y003858D01*
X011516Y003858D01*
X011551Y003893D01*
X011683Y003893D01*
X011777Y003799D01*
X011777Y003698D01*
X011784Y002857D01*
X013514Y002857D01*
X013506Y007439D01*
X013338Y007439D01*
X013244Y007533D01*
X011388Y009389D01*
X011388Y009168D01*
X011324Y009103D01*
X010248Y009103D01*
X010184Y009168D01*
X010184Y011267D01*
X010248Y011331D01*
X011324Y011331D01*
X011388Y011267D01*
X011388Y009841D01*
X013470Y007759D01*
X013666Y007759D01*
X013732Y007759D01*
X013732Y007759D01*
X013747Y007744D01*
X013747Y012005D01*
X009460Y012013D01*
X009502Y011941D01*
X009608Y011726D01*
X009700Y011505D01*
X009777Y011278D01*
X009839Y011047D01*
X009885Y010813D01*
X009916Y010576D01*
X009932Y010337D01*
X009932Y010267D01*
X006328Y010267D01*
X006328Y010167D01*
X006328Y006563D01*
X006398Y006563D01*
X006636Y006579D01*
X006874Y006610D01*
X007108Y006657D01*
X007339Y006719D01*
X007566Y006796D01*
X007787Y006887D01*
X008002Y006993D01*
X008209Y007113D01*
X008408Y007246D01*
X008597Y007391D01*
X008777Y007549D01*
X008946Y007718D01*
X009104Y007898D01*
X009250Y008088D01*
X009383Y008287D01*
X009502Y008494D01*
X009608Y008708D01*
X009700Y008929D01*
X009777Y009156D01*
X009839Y009387D01*
X009885Y009622D01*
X009916Y009859D01*
X009932Y010098D01*
X009932Y010167D01*
X006328Y010167D01*
X006228Y010167D01*
X006228Y006563D01*
X006159Y006563D01*
X005920Y006579D01*
X005683Y006610D01*
X005448Y006657D01*
X005217Y006719D01*
X004990Y006796D01*
X004769Y006887D01*
X004555Y006993D01*
X004348Y007113D01*
X004149Y007246D01*
X003959Y007391D01*
X003779Y007549D01*
X003610Y007718D01*
X003452Y007898D01*
X003306Y008088D01*
X003174Y008287D01*
X003054Y008494D01*
X002948Y008708D01*
X002857Y008929D01*
X002780Y009156D01*
X002718Y009387D01*
X002671Y009622D01*
X002640Y009859D01*
X002624Y010098D01*
X002624Y010167D01*
X006228Y010167D01*
X006228Y010267D01*
X002624Y010267D01*
X002624Y010337D01*
X002640Y010576D01*
X002671Y010813D01*
X002718Y011047D01*
X002780Y011278D01*
X002857Y011505D01*
X002948Y011726D01*
X003054Y011941D01*
X003103Y012025D01*
X000467Y012030D01*
X000467Y011969D02*
X003070Y011969D01*
X003019Y011870D02*
X000467Y011870D01*
X000467Y011772D02*
X002971Y011772D01*
X002926Y011673D02*
X000467Y011673D01*
X000467Y011575D02*
X002886Y011575D01*
X002847Y011476D02*
X000467Y011476D01*
X000467Y011378D02*
X002813Y011378D01*
X002780Y011279D02*
X002360Y011279D01*
X002372Y011181D02*
X002754Y011181D01*
X002727Y011082D02*
X002372Y011082D01*
X002372Y010984D02*
X002705Y010984D01*
X002686Y010885D02*
X002372Y010885D01*
X002372Y010787D02*
X002668Y010787D01*
X002655Y010688D02*
X002372Y010688D01*
X002372Y010590D02*
X002642Y010590D01*
X002634Y010491D02*
X002372Y010491D01*
X002372Y010393D02*
X002628Y010393D01*
X002624Y010294D02*
X002372Y010294D01*
X002372Y010196D02*
X006228Y010196D01*
X006228Y010097D02*
X006328Y010097D01*
X006328Y009999D02*
X006228Y009999D01*
X006228Y009900D02*
X006328Y009900D01*
X006328Y009802D02*
X006228Y009802D01*
X006228Y009703D02*
X006328Y009703D01*
X006328Y009605D02*
X006228Y009605D01*
X006228Y009506D02*
X006328Y009506D01*
X006328Y009408D02*
X006228Y009408D01*
X006228Y009309D02*
X006328Y009309D01*
X006328Y009211D02*
X006228Y009211D01*
X006228Y009112D02*
X006328Y009112D01*
X006328Y009014D02*
X006228Y009014D01*
X006228Y008915D02*
X006328Y008915D01*
X006328Y008817D02*
X006228Y008817D01*
X006228Y008718D02*
X006328Y008718D01*
X006328Y008620D02*
X006228Y008620D01*
X006228Y008521D02*
X006328Y008521D01*
X006328Y008423D02*
X006228Y008423D01*
X006228Y008324D02*
X006328Y008324D01*
X006328Y008226D02*
X006228Y008226D01*
X006228Y008127D02*
X006328Y008127D01*
X006328Y008029D02*
X006228Y008029D01*
X006228Y007930D02*
X006328Y007930D01*
X006328Y007832D02*
X006228Y007832D01*
X006228Y007733D02*
X006328Y007733D01*
X006328Y007635D02*
X006228Y007635D01*
X006228Y007536D02*
X006328Y007536D01*
X006328Y007438D02*
X006228Y007438D01*
X006228Y007339D02*
X006328Y007339D01*
X006328Y007241D02*
X006228Y007241D01*
X006228Y007142D02*
X006328Y007142D01*
X006328Y007044D02*
X006228Y007044D01*
X006228Y006945D02*
X006328Y006945D01*
X006328Y006847D02*
X006228Y006847D01*
X006228Y006748D02*
X006328Y006748D01*
X006328Y006650D02*
X006228Y006650D01*
X005482Y006650D02*
X001930Y006650D01*
X001930Y006748D02*
X005129Y006748D01*
X004866Y006847D02*
X001930Y006847D01*
X001930Y006945D02*
X004651Y006945D01*
X004466Y007044D02*
X001930Y007044D01*
X001930Y007142D02*
X004303Y007142D01*
X004155Y007241D02*
X001930Y007241D01*
X001930Y007339D02*
X004026Y007339D01*
X003905Y007438D02*
X001930Y007438D01*
X001930Y007536D02*
X003793Y007536D01*
X003693Y007635D02*
X001930Y007635D01*
X001930Y007733D02*
X003596Y007733D01*
X003510Y007832D02*
X001930Y007832D01*
X001930Y007930D02*
X003427Y007930D01*
X003352Y008029D02*
X001930Y008029D01*
X001930Y008127D02*
X003280Y008127D01*
X003214Y008226D02*
X001930Y008226D01*
X001930Y008324D02*
X003152Y008324D01*
X003095Y008423D02*
X001930Y008423D01*
X001930Y008521D02*
X003040Y008521D01*
X002992Y008620D02*
X001930Y008620D01*
X001930Y008718D02*
X002944Y008718D01*
X002903Y008817D02*
X001930Y008817D01*
X001930Y008915D02*
X002862Y008915D01*
X002828Y009014D02*
X001930Y009014D01*
X001610Y009014D02*
X000467Y009014D01*
X000467Y009112D02*
X001223Y009112D01*
X001168Y009211D02*
X000467Y009211D01*
X000467Y009309D02*
X001168Y009309D01*
X001168Y009408D02*
X000467Y009408D01*
X000467Y009506D02*
X001168Y009506D01*
X001168Y009605D02*
X000467Y009605D01*
X000467Y009703D02*
X001168Y009703D01*
X001168Y009802D02*
X000467Y009802D01*
X000467Y009900D02*
X001168Y009900D01*
X001168Y009999D02*
X000467Y009999D01*
X000467Y010097D02*
X001168Y010097D01*
X001168Y010196D02*
X000467Y010196D01*
X000467Y010294D02*
X001168Y010294D01*
X001168Y010393D02*
X000467Y010393D01*
X000467Y010491D02*
X001168Y010491D01*
X001168Y010590D02*
X000467Y010590D01*
X000467Y010688D02*
X001168Y010688D01*
X001168Y010787D02*
X000467Y010787D01*
X000467Y010885D02*
X001168Y010885D01*
X001168Y010984D02*
X000467Y010984D01*
X000467Y011082D02*
X001168Y011082D01*
X001168Y011181D02*
X000467Y011181D01*
X000467Y011279D02*
X001181Y011279D01*
X001770Y010217D02*
X001770Y005430D01*
X002465Y005430D01*
X002235Y005430D01*
X002235Y005428D01*
X002235Y005316D01*
X002235Y005428D02*
X002235Y004866D01*
X002220Y004276D01*
X002487Y004286D02*
X002543Y004286D01*
X002543Y004384D02*
X002487Y004384D01*
X002483Y004483D02*
X002547Y004483D01*
X002388Y004581D02*
X002901Y004581D01*
X002845Y004680D02*
X002457Y004680D01*
X002511Y004778D02*
X002804Y004778D01*
X002801Y004877D02*
X002524Y004877D01*
X002502Y004975D02*
X002801Y004975D01*
X002842Y005074D02*
X002435Y005074D01*
X002395Y005172D02*
X002895Y005172D01*
X002465Y005430D02*
X005602Y005430D01*
X007637Y005430D01*
X007633Y005039D01*
X007634Y005045D01*
X007634Y004555D01*
X008897Y004555D01*
X008897Y003743D01*
X008897Y003737D01*
X008897Y003743D02*
X008914Y003743D01*
X008914Y004552D01*
X009212Y004552D01*
X009813Y005326D01*
X010112Y005326D01*
X010122Y005149D01*
X010127Y005028D01*
X010112Y005326D02*
X010735Y005326D01*
X010730Y003698D01*
X011617Y003698D01*
X011617Y003733D01*
X011617Y003698D02*
X011625Y002697D01*
X013674Y002697D01*
X013666Y007599D01*
X013404Y007599D01*
X010786Y010217D01*
X011388Y010196D02*
X013747Y010196D01*
X013747Y010294D02*
X011388Y010294D01*
X011388Y010393D02*
X013747Y010393D01*
X013747Y010491D02*
X011388Y010491D01*
X011388Y010590D02*
X011724Y010590D01*
X011689Y010605D02*
X011795Y010561D01*
X011909Y010561D01*
X012015Y010605D01*
X012096Y010686D01*
X012140Y010792D01*
X012140Y010907D01*
X012096Y011013D01*
X012015Y011094D01*
X011909Y011138D01*
X011795Y011138D01*
X011689Y011094D01*
X011607Y011013D01*
X011564Y010907D01*
X011564Y010792D01*
X011607Y010686D01*
X011689Y010605D01*
X011606Y010688D02*
X011388Y010688D01*
X011388Y010787D02*
X011566Y010787D01*
X011564Y010885D02*
X011388Y010885D01*
X011388Y010984D02*
X011596Y010984D01*
X011677Y011082D02*
X011388Y011082D01*
X011388Y011181D02*
X013747Y011181D01*
X013747Y011279D02*
X011375Y011279D01*
X012027Y011082D02*
X013747Y011082D01*
X013747Y010984D02*
X012108Y010984D01*
X012140Y010885D02*
X013747Y010885D01*
X013747Y010787D02*
X012138Y010787D01*
X012098Y010688D02*
X013747Y010688D01*
X013747Y010590D02*
X011980Y010590D01*
X011388Y010097D02*
X013747Y010097D01*
X013747Y009999D02*
X011388Y009999D01*
X011388Y009900D02*
X013747Y009900D01*
X013747Y009802D02*
X011428Y009802D01*
X011526Y009703D02*
X013747Y009703D01*
X013747Y009605D02*
X011625Y009605D01*
X011723Y009506D02*
X013747Y009506D01*
X013747Y009408D02*
X011822Y009408D01*
X011920Y009309D02*
X013747Y009309D01*
X013747Y009211D02*
X012019Y009211D01*
X012117Y009112D02*
X013747Y009112D01*
X013747Y009014D02*
X012216Y009014D01*
X012314Y008915D02*
X013747Y008915D01*
X013747Y008817D02*
X012413Y008817D01*
X012511Y008718D02*
X013747Y008718D01*
X013747Y008620D02*
X012610Y008620D01*
X012708Y008521D02*
X013747Y008521D01*
X013747Y008423D02*
X012807Y008423D01*
X012905Y008324D02*
X013747Y008324D01*
X013747Y008226D02*
X013004Y008226D01*
X013102Y008127D02*
X013747Y008127D01*
X013747Y008029D02*
X013201Y008029D01*
X013299Y007930D02*
X013747Y007930D01*
X013747Y007832D02*
X013398Y007832D01*
X013142Y007635D02*
X008863Y007635D01*
X008960Y007733D02*
X013043Y007733D01*
X012945Y007832D02*
X009046Y007832D01*
X009129Y007930D02*
X012846Y007930D01*
X012748Y008029D02*
X009205Y008029D01*
X009276Y008127D02*
X012649Y008127D01*
X012551Y008226D02*
X009342Y008226D01*
X009405Y008324D02*
X012452Y008324D01*
X012354Y008423D02*
X009461Y008423D01*
X009516Y008521D02*
X012255Y008521D01*
X012157Y008620D02*
X009565Y008620D01*
X009612Y008718D02*
X012058Y008718D01*
X011960Y008817D02*
X009653Y008817D01*
X009694Y008915D02*
X011861Y008915D01*
X011763Y009014D02*
X009728Y009014D01*
X009762Y009112D02*
X010239Y009112D01*
X010184Y009211D02*
X009791Y009211D01*
X009818Y009309D02*
X010184Y009309D01*
X010184Y009408D02*
X009843Y009408D01*
X009862Y009506D02*
X010184Y009506D01*
X010184Y009605D02*
X009882Y009605D01*
X009896Y009703D02*
X010184Y009703D01*
X010184Y009802D02*
X009909Y009802D01*
X009919Y009900D02*
X010184Y009900D01*
X010184Y009999D02*
X009926Y009999D01*
X009932Y010097D02*
X010184Y010097D01*
X010184Y010196D02*
X006328Y010196D01*
X008763Y007536D02*
X013240Y007536D01*
X013506Y007438D02*
X008651Y007438D01*
X008530Y007339D02*
X013506Y007339D01*
X013506Y007241D02*
X008401Y007241D01*
X008253Y007142D02*
X013506Y007142D01*
X013507Y007044D02*
X008090Y007044D01*
X007905Y006945D02*
X013507Y006945D01*
X013507Y006847D02*
X007690Y006847D01*
X007427Y006748D02*
X013507Y006748D01*
X013507Y006650D02*
X007074Y006650D01*
X007727Y005566D02*
X013509Y005566D01*
X013509Y005468D02*
X010819Y005468D01*
X010895Y005369D02*
X011081Y005369D01*
X010982Y005271D02*
X010895Y005271D01*
X010894Y005172D02*
X010924Y005172D01*
X010919Y004778D02*
X010893Y004778D01*
X010893Y004680D02*
X010970Y004680D01*
X010892Y004581D02*
X011068Y004581D01*
X010892Y004483D02*
X013511Y004483D01*
X013511Y004581D02*
X012650Y004581D01*
X012631Y004562D02*
X012766Y004697D01*
X012839Y004874D01*
X012839Y005065D01*
X012766Y005241D01*
X012631Y005376D01*
X012455Y005449D01*
X012264Y005449D01*
X012087Y005376D01*
X011952Y005241D01*
X011879Y005065D01*
X011879Y004874D01*
X011952Y004697D01*
X012087Y004562D01*
X012264Y004489D01*
X012455Y004489D01*
X012631Y004562D01*
X012749Y004680D02*
X013511Y004680D01*
X013510Y004778D02*
X012800Y004778D01*
X012839Y004877D02*
X013510Y004877D01*
X013487Y004838D02*
X013350Y004725D01*
X013510Y004975D02*
X012839Y004975D01*
X012835Y005074D02*
X013510Y005074D01*
X013510Y005172D02*
X012795Y005172D01*
X012736Y005271D02*
X013510Y005271D01*
X013509Y005369D02*
X012638Y005369D01*
X012081Y005369D02*
X011638Y005369D01*
X011736Y005271D02*
X011982Y005271D01*
X011924Y005172D02*
X011795Y005172D01*
X011835Y005074D02*
X011883Y005074D01*
X011879Y004975D02*
X011839Y004975D01*
X011839Y004877D02*
X011879Y004877D01*
X011919Y004778D02*
X011800Y004778D01*
X011749Y004680D02*
X011970Y004680D01*
X012068Y004581D02*
X011650Y004581D01*
X011439Y004185D02*
X011415Y004126D01*
X011550Y003892D02*
X010890Y003892D01*
X010891Y003990D02*
X013512Y003990D01*
X013512Y003892D02*
X011684Y003892D01*
X011777Y003793D02*
X013512Y003793D01*
X013512Y003695D02*
X011777Y003695D01*
X011778Y003596D02*
X013512Y003596D01*
X013513Y003498D02*
X011779Y003498D01*
X011780Y003399D02*
X013513Y003399D01*
X013513Y003301D02*
X011780Y003301D01*
X011781Y003202D02*
X013513Y003202D01*
X013513Y003104D02*
X011782Y003104D01*
X011783Y003005D02*
X013513Y003005D01*
X013514Y002907D02*
X011784Y002907D01*
X011484Y002611D02*
X011397Y002611D01*
X011456Y002710D02*
X011465Y002710D01*
X011184Y002806D02*
X010686Y002393D01*
X009979Y002393D01*
X010212Y002217D02*
X011828Y002217D01*
X011828Y002119D02*
X010338Y002119D01*
X010379Y002020D02*
X011828Y002020D01*
X011828Y001922D02*
X010379Y001922D01*
X010379Y001823D02*
X011801Y001823D01*
X011779Y001725D02*
X010379Y001725D01*
X010333Y001626D02*
X011789Y001626D01*
X011806Y001528D02*
X009534Y001528D01*
X009531Y001626D02*
X009732Y001626D01*
X009686Y001725D02*
X009529Y001725D01*
X009527Y001823D02*
X009676Y001823D01*
X009578Y001922D02*
X009526Y001922D01*
X009364Y002025D02*
X009376Y001281D01*
X009432Y001219D01*
X009537Y001035D02*
X009646Y001035D01*
X009646Y000989D02*
X009656Y000951D01*
X009676Y000917D01*
X009704Y000889D01*
X009738Y000869D01*
X009776Y000859D01*
X010004Y000859D01*
X010004Y001138D01*
X009646Y001138D01*
X009646Y000989D01*
X009665Y000937D02*
X009535Y000937D01*
X009640Y000838D02*
X011828Y000838D01*
X011828Y000740D02*
X009657Y000740D01*
X009604Y000641D02*
X011828Y000641D01*
X011828Y000543D02*
X007971Y000543D01*
X007900Y000699D02*
X007636Y000696D01*
X007068Y000696D01*
X007068Y002222D01*
X006474Y002222D01*
X006474Y003742D01*
X007636Y003742D01*
X007636Y003957D01*
X007634Y004555D01*
X007474Y004680D02*
X004718Y004680D01*
X004759Y004778D02*
X007474Y004778D01*
X007271Y004581D02*
X007213Y004581D01*
X007213Y004483D02*
X007271Y004483D01*
X006878Y004581D02*
X004661Y004581D01*
X004563Y004483D02*
X006294Y004483D01*
X006492Y004273D02*
X002796Y004277D01*
X002810Y004276D01*
X002807Y003864D01*
X002873Y003724D01*
X002606Y003892D02*
X002472Y003892D01*
X002469Y003990D02*
X002606Y003990D01*
X002543Y004089D02*
X002487Y004089D01*
X002487Y004187D02*
X002543Y004187D01*
X003078Y004089D02*
X006268Y004089D01*
X006716Y004089D02*
X006893Y004089D01*
X006856Y004187D02*
X006769Y004187D01*
X006780Y004286D02*
X006856Y004286D01*
X006856Y004384D02*
X006758Y004384D01*
X006690Y004483D02*
X006856Y004483D01*
X006896Y004877D02*
X004761Y004877D01*
X004761Y004975D02*
X006896Y004975D01*
X006896Y005074D02*
X004721Y005074D01*
X004668Y005172D02*
X006896Y005172D01*
X007242Y005055D02*
X007634Y005045D01*
X007794Y004975D02*
X009338Y004975D01*
X009262Y004877D02*
X007794Y004877D01*
X007794Y004778D02*
X009185Y004778D01*
X009415Y005074D02*
X007799Y005074D01*
X007795Y005172D02*
X009492Y005172D01*
X009568Y005271D02*
X007796Y005271D01*
X007797Y005369D02*
X009645Y005369D01*
X009721Y005468D02*
X007798Y005468D01*
X008622Y005655D02*
X008800Y005753D01*
X009854Y004358D02*
X009854Y003886D01*
X009669Y003932D01*
X009669Y003223D02*
X009543Y002905D01*
X009056Y002418D01*
X009055Y002419D01*
X008879Y002419D01*
X008796Y002419D01*
X008879Y002419D02*
X008879Y003074D01*
X008661Y003104D02*
X008625Y003104D01*
X008625Y003078D02*
X008625Y003154D01*
X008639Y003154D01*
X008642Y003151D01*
X008661Y003151D01*
X008661Y002904D01*
X008719Y002845D01*
X008719Y002584D01*
X008678Y002608D01*
X008626Y002622D01*
X008600Y002622D01*
X008600Y002419D01*
X008599Y002419D01*
X008599Y002622D01*
X008573Y002622D01*
X008521Y002608D01*
X008475Y002581D01*
X008473Y002579D01*
X008470Y002582D01*
X008335Y002582D01*
X008332Y002579D01*
X008002Y002579D01*
X008002Y003186D01*
X008034Y003154D01*
X008109Y003154D01*
X008109Y003078D01*
X008363Y003078D01*
X008363Y003070D01*
X008109Y003070D01*
X008109Y002929D01*
X008119Y002891D01*
X008139Y002857D01*
X008167Y002829D01*
X008201Y002809D01*
X008239Y002799D01*
X008363Y002799D01*
X008363Y003070D01*
X008371Y003070D01*
X008371Y002799D01*
X008495Y002799D01*
X008533Y002809D01*
X008568Y002829D01*
X008595Y002857D01*
X008615Y002891D01*
X008625Y002929D01*
X008625Y003070D01*
X008371Y003070D01*
X008371Y003078D01*
X008625Y003078D01*
X008625Y003005D02*
X008661Y003005D01*
X008661Y002907D02*
X008619Y002907D01*
X008600Y002842D02*
X008367Y003074D01*
X008150Y002727D01*
X008205Y002808D02*
X008002Y002808D01*
X008002Y002710D02*
X008719Y002710D01*
X008719Y002808D02*
X008530Y002808D01*
X008600Y002842D02*
X008600Y002419D01*
X008600Y002222D01*
X008599Y002222D01*
X008599Y002419D01*
X008600Y002419D01*
X008600Y002222D01*
X008599Y002316D02*
X008600Y002316D01*
X008599Y002414D02*
X008600Y002414D01*
X008599Y002513D02*
X008600Y002513D01*
X008599Y002611D02*
X008600Y002611D01*
X008666Y002611D02*
X008719Y002611D01*
X008533Y002611D02*
X008002Y002611D01*
X007894Y002419D02*
X007606Y002125D01*
X007595Y001131D01*
X007900Y001298D02*
X007900Y000699D01*
X008152Y000855D02*
X008191Y000854D01*
X008206Y000846D02*
X008152Y000855D01*
X008206Y000846D02*
X008206Y001122D01*
X008390Y001122D01*
X008403Y002025D01*
X008600Y002025D02*
X008600Y000935D01*
X008613Y000858D01*
X008657Y000858D01*
X008902Y000838D02*
X008971Y000838D01*
X008983Y000937D02*
X008893Y000937D01*
X008844Y001035D02*
X009037Y001035D01*
X009125Y001134D02*
X008760Y001134D01*
X008760Y001232D02*
X009088Y001232D01*
X009088Y001331D02*
X008760Y001331D01*
X008760Y001429D02*
X009126Y001429D01*
X009212Y001528D02*
X008760Y001528D01*
X008760Y001626D02*
X009211Y001626D01*
X009209Y001725D02*
X008760Y001725D01*
X008760Y001823D02*
X009207Y001823D01*
X009364Y002025D02*
X008796Y002025D01*
X008796Y002222D02*
X009504Y002222D01*
X009851Y001875D01*
X010032Y001875D01*
X010004Y001429D02*
X010061Y001429D01*
X010061Y001331D02*
X010004Y001331D01*
X010004Y001232D02*
X010061Y001232D01*
X010061Y001134D02*
X010004Y001134D01*
X010004Y001035D02*
X010061Y001035D01*
X010061Y000937D02*
X010004Y000937D01*
X009646Y001134D02*
X009628Y001134D01*
X009497Y000767D02*
X009259Y000850D01*
X008993Y000740D02*
X008877Y000740D01*
X008805Y000641D02*
X009060Y000641D01*
X008422Y000641D02*
X008386Y000641D01*
X008161Y001292D02*
X007900Y001298D01*
X008161Y001292D02*
X008161Y002222D01*
X008403Y002222D01*
X008403Y002419D02*
X007894Y002419D01*
X007842Y002419D01*
X007842Y003951D01*
X008347Y003951D01*
X008347Y003940D01*
X008914Y003743D02*
X008918Y003738D01*
X008371Y003005D02*
X008363Y003005D01*
X008363Y002907D02*
X008371Y002907D01*
X008363Y002808D02*
X008371Y002808D01*
X008115Y002907D02*
X008002Y002907D01*
X008002Y003005D02*
X008109Y003005D01*
X008109Y003104D02*
X008002Y003104D01*
X008796Y002222D02*
X009492Y002222D01*
X009504Y002222D02*
X009584Y002302D01*
X009584Y002552D01*
X010730Y003698D01*
X010891Y004089D02*
X013512Y004089D01*
X013511Y004187D02*
X010891Y004187D01*
X010892Y004286D02*
X013511Y004286D01*
X013511Y004384D02*
X010892Y004384D01*
X011156Y002871D02*
X011184Y002806D01*
X011081Y002513D02*
X011828Y002513D01*
X011828Y002414D02*
X010962Y002414D01*
X010844Y002316D02*
X011828Y002316D01*
X012419Y003089D02*
X012605Y003089D01*
X011824Y001429D02*
X010375Y001429D01*
X010419Y001331D02*
X011828Y001331D01*
X011828Y001232D02*
X010419Y001232D01*
X010419Y001134D02*
X011828Y001134D01*
X011828Y001035D02*
X010419Y001035D01*
X010400Y000937D02*
X011828Y000937D01*
X011650Y000815D02*
X011342Y000507D01*
X006759Y000507D01*
X006701Y000506D01*
X006699Y001382D01*
X006678Y001397D01*
X006908Y001429D02*
X003140Y001429D01*
X003141Y001331D02*
X006908Y001331D01*
X006908Y001232D02*
X003142Y001232D01*
X003143Y001134D02*
X006908Y001134D01*
X006908Y001035D02*
X003143Y001035D01*
X003144Y000937D02*
X006908Y000937D01*
X006908Y000838D02*
X003145Y000838D01*
X003145Y000740D02*
X006908Y000740D01*
X006908Y000641D02*
X003146Y000641D01*
X003147Y000543D02*
X006995Y000543D01*
X006908Y001528D02*
X003140Y001528D01*
X003139Y001626D02*
X006908Y001626D01*
X006908Y001725D02*
X003138Y001725D01*
X003138Y001823D02*
X006908Y001823D01*
X006908Y001922D02*
X003137Y001922D01*
X003136Y002020D02*
X006908Y002020D01*
X006351Y002119D02*
X003135Y002119D01*
X003135Y002217D02*
X006314Y002217D01*
X006314Y002316D02*
X003134Y002316D01*
X003845Y003559D02*
X003756Y003648D01*
X004655Y001989D02*
X004692Y001929D01*
X002075Y005172D02*
X000467Y005172D01*
X000467Y005271D02*
X001703Y005271D01*
X001610Y005369D02*
X000467Y005369D01*
X000467Y005468D02*
X001610Y005468D01*
X001610Y005566D02*
X000467Y005566D01*
X000467Y005665D02*
X001610Y005665D01*
X001610Y005763D02*
X000467Y005763D01*
X000467Y005862D02*
X001610Y005862D01*
X001610Y005960D02*
X000467Y005960D01*
X000467Y006059D02*
X001610Y006059D01*
X001610Y006157D02*
X000467Y006157D01*
X000467Y006256D02*
X001610Y006256D01*
X001610Y006354D02*
X000467Y006354D01*
X000467Y006453D02*
X001610Y006453D01*
X001610Y006551D02*
X000467Y006551D01*
X000467Y006650D02*
X001610Y006650D01*
X001610Y006748D02*
X000467Y006748D01*
X000467Y006847D02*
X001610Y006847D01*
X001610Y006945D02*
X000467Y006945D01*
X000467Y007044D02*
X001610Y007044D01*
X001610Y007142D02*
X000467Y007142D01*
X000467Y007241D02*
X001610Y007241D01*
X001610Y007339D02*
X000467Y007339D01*
X000467Y007438D02*
X001610Y007438D01*
X001610Y007536D02*
X000467Y007536D01*
X000467Y007635D02*
X001610Y007635D01*
X001610Y007733D02*
X000467Y007733D01*
X000467Y007832D02*
X001610Y007832D01*
X001610Y007930D02*
X000467Y007930D01*
X000467Y008029D02*
X001610Y008029D01*
X001610Y008127D02*
X000467Y008127D01*
X000467Y008226D02*
X001610Y008226D01*
X001610Y008324D02*
X000467Y008324D01*
X000467Y008423D02*
X001610Y008423D01*
X001610Y008521D02*
X000467Y008521D01*
X000467Y008620D02*
X001610Y008620D01*
X001610Y008718D02*
X000467Y008718D01*
X000467Y008817D02*
X001610Y008817D01*
X001610Y008915D02*
X000467Y008915D01*
X002317Y009112D02*
X002794Y009112D01*
X002765Y009211D02*
X002372Y009211D01*
X002372Y009309D02*
X002739Y009309D01*
X002714Y009408D02*
X002372Y009408D01*
X002372Y009506D02*
X002694Y009506D01*
X002674Y009605D02*
X002372Y009605D01*
X002372Y009703D02*
X002660Y009703D01*
X002647Y009802D02*
X002372Y009802D01*
X002372Y009900D02*
X002637Y009900D01*
X002631Y009999D02*
X002372Y009999D01*
X002372Y010097D02*
X002624Y010097D01*
X001930Y006551D02*
X013507Y006551D01*
X013508Y006453D02*
X001930Y006453D01*
X001930Y006354D02*
X013508Y006354D01*
X013508Y006256D02*
X001930Y006256D01*
X001930Y006157D02*
X013508Y006157D01*
X013508Y006059D02*
X001930Y006059D01*
X001930Y005960D02*
X013508Y005960D01*
X013509Y005862D02*
X001930Y005862D01*
X001930Y005763D02*
X013509Y005763D01*
X013509Y005665D02*
X001930Y005665D01*
X002235Y005430D02*
X002256Y005428D01*
X004444Y005802D02*
X004635Y005773D01*
X009627Y001429D02*
X009689Y001429D01*
X011593Y000811D02*
X011650Y000815D01*
X013732Y007759D02*
X013732Y007759D01*
X011664Y009112D02*
X011333Y009112D01*
X011388Y009211D02*
X011566Y009211D01*
X011467Y009309D02*
X011388Y009309D01*
X010184Y010294D02*
X009932Y010294D01*
X009928Y010393D02*
X010184Y010393D01*
X010184Y010491D02*
X009922Y010491D01*
X009915Y010590D02*
X010184Y010590D01*
X010184Y010688D02*
X009902Y010688D01*
X009889Y010787D02*
X010184Y010787D01*
X010184Y010885D02*
X009871Y010885D01*
X009851Y010984D02*
X010184Y010984D01*
X010184Y011082D02*
X009829Y011082D01*
X009803Y011181D02*
X010184Y011181D01*
X010197Y011279D02*
X009776Y011279D01*
X009743Y011378D02*
X013747Y011378D01*
X013747Y011476D02*
X009709Y011476D01*
X009671Y011575D02*
X013747Y011575D01*
X013747Y011673D02*
X009630Y011673D01*
X009585Y011772D02*
X013747Y011772D01*
X013747Y011870D02*
X009537Y011870D01*
X009486Y011969D02*
X013747Y011969D01*
D24*
X011852Y010849D03*
X008622Y005655D03*
X009854Y004358D03*
X010127Y005028D03*
X011439Y004185D03*
X012419Y003089D03*
X011184Y002806D03*
X009979Y002393D03*
X009376Y001281D03*
X009259Y000850D03*
X008613Y000858D03*
X008191Y000854D03*
X007595Y001131D03*
X006699Y001382D03*
X008150Y002727D03*
X006492Y004273D03*
X004635Y005773D03*
X003845Y003559D03*
X002954Y002789D03*
X001883Y002793D03*
X001015Y001526D03*
X001726Y004850D03*
X002235Y004866D03*
X004692Y001929D03*
X011593Y000811D03*
X013350Y004725D03*
M02*
