G75*
%MOIN*%
%OFA0B0*%
%FSLAX24Y24*%
%IPPOS*%
%LPD*%
%AMOC8*
5,1,8,0,0,1.08239X$1,22.5*
%
%ADD10C,0.0580*%
%ADD11R,0.0580X0.0580*%
%ADD12R,0.0395X0.0395*%
%ADD13R,0.0434X0.0356*%
%ADD14R,0.0690X0.0474*%
%ADD15C,0.0820*%
%ADD16R,0.1580X0.0840*%
%ADD17R,0.0474X0.0671*%
%ADD18C,0.0120*%
%ADD19R,0.0611X0.0651*%
%ADD20R,0.0611X0.0395*%
%ADD21R,0.0533X0.1045*%
%ADD22R,0.0297X0.0329*%
%ADD23C,0.0186*%
%ADD24C,0.0437*%
D10*
X010675Y001180D02*
X010588Y001672D01*
X010675Y001180D02*
X010762Y000687D01*
X011478Y002136D02*
X011970Y002050D01*
X011478Y002136D02*
X010985Y002223D01*
D11*
G36*
X011713Y001801D02*
X011143Y001901D01*
X011243Y002471D01*
X011813Y002371D01*
X011713Y001801D01*
G37*
G36*
X010440Y000845D02*
X010340Y001415D01*
X010910Y001515D01*
X011010Y000945D01*
X010440Y000845D01*
G37*
D12*
X002877Y003902D03*
X002877Y004493D03*
D13*
X003404Y004705D03*
X003404Y004193D03*
X006870Y003349D03*
X006870Y002837D03*
X008981Y002603D03*
X008981Y002091D03*
X008984Y003351D03*
X008984Y003863D03*
D14*
X006070Y003712D03*
X006070Y004736D03*
D15*
X005095Y003882D03*
X004095Y003882D03*
X000640Y003560D03*
X000640Y002560D03*
X012366Y003129D03*
X012366Y004129D03*
D16*
X010760Y009732D03*
X002272Y007125D03*
D17*
X001051Y006535D03*
X011981Y010322D03*
D18*
X011547Y010362D02*
X002453Y010362D01*
X002335Y010480D02*
X011547Y010480D01*
X011547Y010599D02*
X002216Y010599D01*
X002098Y010717D02*
X011547Y010717D01*
X011547Y010836D02*
X001979Y010836D01*
X001861Y010954D02*
X011547Y010954D01*
X011547Y011073D02*
X001742Y011073D01*
X001624Y011191D02*
X011547Y011191D01*
X011547Y011310D02*
X001505Y011310D01*
X001387Y011428D02*
X011547Y011428D01*
X011547Y011547D02*
X001268Y011547D01*
X001150Y011665D02*
X011547Y011665D01*
X011547Y011700D02*
X011547Y007763D01*
X010171Y007785D01*
X008800Y007903D01*
X007440Y008117D01*
X006098Y008425D01*
X004782Y008826D01*
X003496Y009318D01*
X001114Y011700D01*
X011547Y011700D01*
X011547Y010243D02*
X002572Y010243D01*
X002690Y010125D02*
X011547Y010125D01*
X011547Y010006D02*
X002809Y010006D01*
X002927Y009888D02*
X011547Y009888D01*
X011547Y009769D02*
X003046Y009769D01*
X003164Y009651D02*
X011547Y009651D01*
X011547Y009532D02*
X003283Y009532D01*
X003401Y009414D02*
X011547Y009414D01*
X011547Y009295D02*
X003557Y009295D01*
X003866Y009177D02*
X011547Y009177D01*
X011547Y009058D02*
X004176Y009058D01*
X004232Y008954D02*
X002861Y009072D01*
X001484Y009094D01*
X001484Y005157D01*
X011917Y005157D01*
X009535Y007539D01*
X008250Y008031D01*
X006933Y008432D01*
X005592Y008740D01*
X004232Y008954D01*
X004322Y008940D02*
X001484Y008940D01*
X001484Y009058D02*
X003021Y009058D01*
X004485Y008940D02*
X011547Y008940D01*
X011547Y008821D02*
X004798Y008821D01*
X005077Y008821D02*
X001484Y008821D01*
X001484Y008703D02*
X005755Y008703D01*
X005576Y008584D02*
X011547Y008584D01*
X011547Y008466D02*
X005965Y008466D01*
X006271Y008584D02*
X001484Y008584D01*
X001484Y008466D02*
X006787Y008466D01*
X006954Y008229D02*
X011547Y008229D01*
X011547Y008347D02*
X006438Y008347D01*
X007212Y008347D02*
X001484Y008347D01*
X001484Y008229D02*
X007601Y008229D01*
X007483Y008110D02*
X011547Y008110D01*
X011547Y007992D02*
X008238Y007992D01*
X008353Y007992D02*
X001484Y007992D01*
X001484Y008110D02*
X007990Y008110D01*
X008662Y007873D02*
X001484Y007873D01*
X001484Y007755D02*
X008972Y007755D01*
X009150Y007873D02*
X011547Y007873D01*
X011547Y008703D02*
X005187Y008703D01*
X001484Y007636D02*
X009281Y007636D01*
X009557Y007518D02*
X001484Y007518D01*
X001484Y007399D02*
X009675Y007399D01*
X009794Y007281D02*
X001484Y007281D01*
X001484Y007162D02*
X009912Y007162D01*
X010031Y007044D02*
X001484Y007044D01*
X001484Y006925D02*
X010149Y006925D01*
X010268Y006807D02*
X001484Y006807D01*
X001484Y006688D02*
X010386Y006688D01*
X010505Y006570D02*
X001484Y006570D01*
X001484Y006451D02*
X010623Y006451D01*
X010742Y006333D02*
X001484Y006333D01*
X001484Y006214D02*
X010860Y006214D01*
X010979Y006096D02*
X001484Y006096D01*
X001484Y005977D02*
X011097Y005977D01*
X011216Y005859D02*
X001484Y005859D01*
X001484Y005740D02*
X011334Y005740D01*
X011453Y005622D02*
X001484Y005622D01*
X001484Y005503D02*
X011571Y005503D01*
X011690Y005385D02*
X001484Y005385D01*
X001484Y005266D02*
X011808Y005266D01*
D19*
X007924Y003980D03*
D20*
X007922Y003461D03*
D21*
X008490Y003783D03*
D22*
X008455Y003114D03*
X007944Y003114D03*
D23*
X007979Y002459D03*
X008176Y002459D03*
X008176Y002262D03*
X007979Y002262D03*
X007979Y002065D03*
X008176Y002065D03*
X008373Y002065D03*
X008373Y002262D03*
X008373Y002459D03*
D24*
X001373Y001376D03*
X002294Y002778D03*
X003081Y002780D03*
X003366Y003570D03*
X002268Y004428D03*
X001627Y004601D03*
X004610Y004607D03*
X007162Y004860D03*
X009010Y004255D03*
X009623Y003032D03*
X010222Y002260D03*
X010428Y002702D03*
X009456Y001771D03*
X008728Y001612D03*
X008163Y001452D03*
X007591Y000855D03*
X006870Y000877D03*
X007164Y001482D03*
X006566Y001485D03*
X005418Y002158D03*
X004556Y001708D03*
X007726Y002767D03*
X008395Y000673D03*
X010508Y004178D03*
X011975Y005655D03*
X011981Y008507D03*
M02*
