G75*
%MOIN*%
%OFA0B0*%
%FSLAX24Y24*%
%IPPOS*%
%LPD*%
%AMOC8*
5,1,8,0,0,1.08239X$1,22.5*
%
%ADD10C,0.0100*%
%ADD11C,0.0080*%
%ADD12C,0.0010*%
%ADD13R,0.0280X0.0160*%
%ADD14C,0.0160*%
%ADD15C,0.0050*%
D10*
X000586Y000289D02*
X000586Y012100D01*
X012397Y012100D01*
X012397Y000289D01*
X000586Y000289D01*
D11*
X002798Y004119D02*
X002798Y004158D01*
X002956Y004158D01*
X002956Y004119D01*
X002798Y004119D01*
D12*
X002664Y004098D02*
X002639Y004073D01*
X002614Y004073D01*
X002589Y004098D01*
X002589Y004148D01*
X002564Y004173D01*
X002539Y004173D01*
X002514Y004148D01*
X002514Y004098D01*
X002539Y004073D01*
X002514Y004026D02*
X002664Y004026D01*
X002664Y004098D02*
X002664Y004148D01*
X002639Y004173D01*
X002639Y004220D02*
X002539Y004220D01*
X002514Y004245D01*
X002514Y004295D01*
X002539Y004320D01*
X002639Y004320D01*
X002664Y004295D01*
X002664Y004245D01*
X002639Y004220D01*
X002664Y004368D02*
X002514Y004368D01*
X002564Y004368D02*
X002564Y004443D01*
X002589Y004468D01*
X002639Y004468D01*
X002664Y004443D01*
X002664Y004368D01*
X002564Y004418D02*
X002514Y004468D01*
X002514Y004515D02*
X002614Y004615D01*
X002639Y004615D01*
X002664Y004590D01*
X002664Y004540D01*
X002639Y004515D01*
X002514Y004515D02*
X002514Y004615D01*
X002514Y004026D02*
X002664Y003926D01*
X002514Y003926D01*
X002514Y003878D02*
X002514Y003778D01*
X002664Y003778D01*
X002664Y003878D01*
X002589Y003828D02*
X002589Y003778D01*
X002564Y003731D02*
X002539Y003731D01*
X002514Y003706D01*
X002514Y003656D01*
X002539Y003631D01*
X002514Y003584D02*
X002664Y003584D01*
X002639Y003631D02*
X002614Y003631D01*
X002589Y003656D01*
X002589Y003706D01*
X002564Y003731D01*
X002639Y003731D02*
X002664Y003706D01*
X002664Y003656D01*
X002639Y003631D01*
X002514Y003584D02*
X002664Y003484D01*
X002514Y003484D01*
X002539Y003436D02*
X002664Y003436D01*
X002664Y003336D02*
X002539Y003336D01*
X002514Y003361D01*
X002514Y003411D01*
X002539Y003436D01*
X002539Y003289D02*
X002514Y003264D01*
X002514Y003214D01*
X002539Y003189D01*
X002589Y003214D02*
X002589Y003264D01*
X002564Y003289D01*
X002539Y003289D01*
X002589Y003214D02*
X002614Y003189D01*
X002639Y003189D01*
X002664Y003214D01*
X002664Y003264D01*
X002639Y003289D01*
X003624Y004269D02*
X003774Y004269D01*
X003774Y004344D01*
X003749Y004369D01*
X003699Y004369D01*
X003674Y004344D01*
X003674Y004269D01*
X003674Y004319D02*
X003624Y004369D01*
X003649Y004417D02*
X003624Y004442D01*
X003624Y004492D01*
X003649Y004517D01*
X003699Y004517D01*
X003724Y004492D01*
X003724Y004467D01*
X003699Y004417D01*
X003774Y004417D01*
X003774Y004517D01*
X006477Y002932D02*
X006502Y002932D01*
X006602Y003032D01*
X006627Y003032D01*
X006627Y002932D01*
X006602Y002885D02*
X006627Y002860D01*
X006627Y002809D01*
X006602Y002784D01*
X006502Y002784D01*
X006477Y002809D01*
X006477Y002860D01*
X006502Y002885D01*
X006547Y003452D02*
X006522Y003477D01*
X006522Y003527D01*
X006547Y003552D01*
X006572Y003552D01*
X006597Y003527D01*
X006597Y003502D01*
X006597Y003527D02*
X006622Y003552D01*
X006647Y003552D01*
X006672Y003527D01*
X006672Y003477D01*
X006647Y003452D01*
X006647Y003599D02*
X006672Y003624D01*
X006672Y003674D01*
X006647Y003699D01*
X006622Y003699D01*
X006522Y003599D01*
X006522Y003699D01*
X006522Y003746D02*
X006522Y003771D01*
X006547Y003771D01*
X006547Y003746D01*
X006522Y003746D01*
X006522Y003820D02*
X006547Y003820D01*
X006647Y003920D01*
X006672Y003920D01*
X006672Y003820D01*
X006597Y003967D02*
X006597Y004042D01*
X006572Y004067D01*
X006547Y004067D01*
X006522Y004042D01*
X006522Y003992D01*
X006547Y003967D01*
X006597Y003967D01*
X006647Y004017D01*
X006672Y004067D01*
X006647Y004115D02*
X006622Y004115D01*
X006597Y004140D01*
X006597Y004190D01*
X006572Y004215D01*
X006547Y004215D01*
X006522Y004190D01*
X006522Y004140D01*
X006547Y004115D01*
X006572Y004115D01*
X006597Y004140D01*
X006597Y004190D02*
X006622Y004215D01*
X006647Y004215D01*
X006672Y004190D01*
X006672Y004140D01*
X006647Y004115D01*
X008985Y003148D02*
X008985Y003123D01*
X009010Y003098D01*
X009060Y003098D01*
X009085Y003123D01*
X009085Y003148D01*
X009060Y003173D01*
X009010Y003173D01*
X008985Y003148D01*
X009010Y003098D02*
X008985Y003073D01*
X008985Y003048D01*
X009010Y003023D01*
X009060Y003023D01*
X009085Y003048D01*
X009085Y003073D01*
X009060Y003098D01*
X009133Y003098D02*
X009158Y003073D01*
X009233Y003073D01*
X009233Y003023D02*
X009233Y003173D01*
X009158Y003173D01*
X009133Y003148D01*
X009133Y003098D01*
X009183Y003073D02*
X009133Y003023D01*
X009195Y002475D02*
X009195Y002375D01*
X009295Y002475D01*
X009320Y002475D01*
X009345Y002450D01*
X009345Y002400D01*
X009320Y002375D01*
X009345Y002277D02*
X009195Y002277D01*
X009195Y002227D02*
X009195Y002327D01*
X009295Y002227D02*
X009345Y002277D01*
X009320Y002180D02*
X009345Y002155D01*
X009345Y002105D01*
X009320Y002080D01*
X009220Y002080D01*
X009195Y002105D01*
X009195Y002155D01*
X009220Y002180D01*
D13*
X008984Y003607D03*
X003404Y004449D03*
D14*
X006858Y003093D02*
X006882Y003093D01*
X008969Y002347D02*
X008993Y002347D01*
D15*
X008465Y002551D02*
X008465Y001972D01*
X007887Y001972D01*
X007887Y002551D01*
X008465Y002551D01*
X007937Y002527D02*
X007905Y002492D01*
X007754Y003051D02*
X007550Y003051D01*
X007550Y004321D01*
X008841Y004321D01*
X008841Y003059D01*
X008620Y003059D01*
X008289Y003055D02*
X008097Y003055D01*
X006448Y003474D02*
X006435Y003474D01*
X006428Y003474D01*
X005698Y003474D01*
X005698Y004988D01*
X006448Y004988D01*
X006448Y003474D01*
X006435Y003474D02*
X006435Y003467D01*
M02*
