G75*
%MOIN*%
%OFA0B0*%
%FSLAX24Y24*%
%IPPOS*%
%LPD*%
%AMOC8*
5,1,8,0,0,1.08239X$1,22.5*
%
%ADD10R,0.0257X0.0186*%
%ADD11R,0.0186X0.0257*%
%ADD12R,0.0434X0.0356*%
%ADD13R,0.0356X0.0434*%
%ADD14R,0.2127X0.2127*%
%ADD15C,0.0198*%
%ADD16R,0.0395X0.0395*%
%ADD17C,0.0580*%
%ADD18R,0.0580X0.0580*%
%ADD19C,0.0820*%
%ADD20R,0.1580X0.0840*%
%ADD21R,0.0474X0.0671*%
%ADD22C,0.0120*%
%ADD23R,0.0253X0.0391*%
%ADD24C,0.0437*%
D10*
X002031Y001054D03*
X002031Y001223D03*
X002031Y001392D03*
X002031Y001562D03*
X002031Y001731D03*
X002031Y001900D03*
X002031Y002069D03*
X002031Y002239D03*
X002996Y002239D03*
X002996Y002069D03*
X002996Y001900D03*
X002996Y001731D03*
X002996Y001562D03*
X002996Y001392D03*
X002996Y001223D03*
X002996Y001054D03*
D11*
X002767Y001066D03*
X002598Y001066D03*
X002429Y001066D03*
X002259Y001066D03*
X002259Y002227D03*
X002429Y002227D03*
X002598Y002227D03*
X002767Y002227D03*
D12*
X003813Y001348D03*
X004251Y001337D03*
X004251Y000825D03*
X003813Y000836D03*
X004867Y000835D03*
X004867Y001347D03*
X005495Y001334D03*
X005495Y000822D03*
X002860Y003702D03*
X002860Y004214D03*
X010014Y001219D03*
X010014Y000708D03*
X010090Y003051D03*
X010090Y003563D03*
X010815Y003568D03*
X011272Y003571D03*
X011272Y003059D03*
X010815Y003056D03*
D13*
X000991Y000850D03*
X001502Y000850D03*
X001522Y001832D03*
X001010Y001832D03*
X001361Y002785D03*
X001873Y002785D03*
X001877Y003370D03*
X001365Y003370D03*
X004047Y003075D03*
X004559Y003075D03*
X008973Y003568D03*
X009485Y003568D03*
X009492Y004199D03*
X010004Y004199D03*
X011281Y004503D03*
X011792Y004503D03*
D14*
X007161Y003172D03*
D15*
X008400Y003270D02*
X008558Y003270D01*
X008558Y003073D02*
X008400Y003073D01*
X008400Y002876D02*
X008558Y002876D01*
X008558Y002680D02*
X008400Y002680D01*
X008400Y002483D02*
X008558Y002483D01*
X008558Y002286D02*
X008400Y002286D01*
X008400Y002089D02*
X008558Y002089D01*
X008243Y001932D02*
X008243Y001774D01*
X008046Y001774D02*
X008046Y001932D01*
X007850Y001932D02*
X007850Y001774D01*
X007653Y001774D02*
X007653Y001932D01*
X007456Y001932D02*
X007456Y001774D01*
X007259Y001774D02*
X007259Y001932D01*
X007062Y001932D02*
X007062Y001774D01*
X006865Y001774D02*
X006865Y001932D01*
X006668Y001932D02*
X006668Y001774D01*
X006472Y001774D02*
X006472Y001932D01*
X006275Y001932D02*
X006275Y001774D01*
X006078Y001774D02*
X006078Y001932D01*
X005921Y002089D02*
X005763Y002089D01*
X005763Y002286D02*
X005921Y002286D01*
X005921Y002483D02*
X005763Y002483D01*
X005763Y002680D02*
X005921Y002680D01*
X005921Y002876D02*
X005763Y002876D01*
X005763Y003073D02*
X005921Y003073D01*
X005921Y003270D02*
X005763Y003270D01*
X005763Y003467D02*
X005921Y003467D01*
X005921Y003664D02*
X005763Y003664D01*
X005763Y003861D02*
X005921Y003861D01*
X005921Y004058D02*
X005763Y004058D01*
X005763Y004254D02*
X005921Y004254D01*
X006078Y004412D02*
X006078Y004570D01*
X006275Y004570D02*
X006275Y004412D01*
X006472Y004412D02*
X006472Y004570D01*
X006668Y004570D02*
X006668Y004412D01*
X006865Y004412D02*
X006865Y004570D01*
X007062Y004570D02*
X007062Y004412D01*
X007259Y004412D02*
X007259Y004570D01*
X007456Y004570D02*
X007456Y004412D01*
X007653Y004412D02*
X007653Y004570D01*
X007850Y004570D02*
X007850Y004412D01*
X008046Y004412D02*
X008046Y004570D01*
X008243Y004570D02*
X008243Y004412D01*
X008400Y004254D02*
X008558Y004254D01*
X008558Y004058D02*
X008400Y004058D01*
X008400Y003861D02*
X008558Y003861D01*
X008558Y003664D02*
X008400Y003664D01*
X008400Y003467D02*
X008558Y003467D01*
D16*
X006164Y001425D03*
X006164Y000835D03*
X003357Y004032D03*
X003357Y004622D03*
D17*
X010588Y001672D02*
X010675Y001180D01*
X010762Y000687D01*
X011478Y002136D02*
X011970Y002050D01*
X011478Y002136D02*
X010985Y002223D01*
D18*
G36*
X011713Y001801D02*
X011143Y001901D01*
X011243Y002471D01*
X011813Y002371D01*
X011713Y001801D01*
G37*
G36*
X010440Y000845D02*
X010340Y001415D01*
X010910Y001515D01*
X011010Y000945D01*
X010440Y000845D01*
G37*
D19*
X012366Y003129D03*
X012366Y004129D03*
X005095Y003882D03*
X004095Y003882D03*
X000640Y003560D03*
X000640Y002560D03*
D20*
X002235Y009831D03*
X010750Y007233D03*
D21*
X011970Y006643D03*
X001014Y010422D03*
D22*
X001448Y010480D02*
X010561Y010480D01*
X010443Y010362D02*
X001448Y010362D01*
X001448Y010243D02*
X010324Y010243D01*
X010206Y010125D02*
X001448Y010125D01*
X001448Y010006D02*
X010087Y010006D01*
X009969Y009888D02*
X001448Y009888D01*
X001448Y009769D02*
X009850Y009769D01*
X009732Y009651D02*
X001448Y009651D01*
X001448Y009532D02*
X009613Y009532D01*
X009499Y009418D02*
X008213Y008925D01*
X006897Y008524D01*
X005555Y008216D01*
X004195Y008003D01*
X002824Y007885D01*
X001448Y007863D01*
X001448Y011800D01*
X011881Y011800D01*
X009499Y009418D01*
X009488Y009414D02*
X001448Y009414D01*
X001448Y009295D02*
X009179Y009295D01*
X008869Y009177D02*
X001448Y009177D01*
X001448Y009058D02*
X008560Y009058D01*
X008768Y009058D02*
X011537Y009058D01*
X011537Y008940D02*
X008014Y008940D01*
X007871Y008821D02*
X001448Y008821D01*
X001448Y008703D02*
X007482Y008703D01*
X007430Y008848D02*
X008790Y009062D01*
X010161Y009180D01*
X011537Y009202D01*
X011537Y005265D01*
X001104Y005265D01*
X003486Y007646D01*
X004772Y008139D01*
X006088Y008540D01*
X007430Y008848D01*
X007313Y008821D02*
X011537Y008821D01*
X011537Y008703D02*
X006797Y008703D01*
X006641Y008466D02*
X001448Y008466D01*
X001448Y008584D02*
X007093Y008584D01*
X006281Y008584D02*
X011537Y008584D01*
X011537Y008466D02*
X005845Y008466D01*
X005609Y008229D02*
X001448Y008229D01*
X001448Y008347D02*
X006125Y008347D01*
X005456Y008347D02*
X011537Y008347D01*
X011537Y008229D02*
X005067Y008229D01*
X004880Y008110D02*
X001448Y008110D01*
X001448Y007992D02*
X004068Y007992D01*
X004078Y007873D02*
X011537Y007873D01*
X011537Y007755D02*
X003769Y007755D01*
X003476Y007636D02*
X011537Y007636D01*
X011537Y007518D02*
X003357Y007518D01*
X003239Y007399D02*
X011537Y007399D01*
X011537Y007281D02*
X003120Y007281D01*
X003002Y007162D02*
X011537Y007162D01*
X011537Y007044D02*
X002883Y007044D01*
X002765Y006925D02*
X011537Y006925D01*
X011537Y006807D02*
X002646Y006807D01*
X002528Y006688D02*
X011537Y006688D01*
X011537Y006570D02*
X002409Y006570D01*
X002291Y006451D02*
X011537Y006451D01*
X011537Y006333D02*
X002172Y006333D01*
X002054Y006214D02*
X011537Y006214D01*
X011537Y006096D02*
X001935Y006096D01*
X001817Y005977D02*
X011537Y005977D01*
X011537Y005859D02*
X001698Y005859D01*
X001580Y005740D02*
X011537Y005740D01*
X011537Y005622D02*
X001461Y005622D01*
X001343Y005503D02*
X011537Y005503D01*
X011537Y005385D02*
X001224Y005385D01*
X001106Y005266D02*
X011537Y005266D01*
X011537Y007992D02*
X004388Y007992D01*
X004697Y008110D02*
X011537Y008110D01*
X011537Y009177D02*
X010126Y009177D01*
X010680Y010599D02*
X001448Y010599D01*
X001448Y010717D02*
X010798Y010717D01*
X010917Y010836D02*
X001448Y010836D01*
X001448Y010954D02*
X011035Y010954D01*
X011154Y011073D02*
X001448Y011073D01*
X001448Y011191D02*
X011272Y011191D01*
X011391Y011310D02*
X001448Y011310D01*
X001448Y011428D02*
X011509Y011428D01*
X011628Y011547D02*
X001448Y011547D01*
X001448Y011665D02*
X011746Y011665D01*
X011865Y011784D02*
X001448Y011784D01*
X001448Y008940D02*
X008250Y008940D01*
X002111Y007873D02*
X001448Y007873D01*
D23*
X008734Y001136D03*
X008734Y000668D03*
X009498Y000668D03*
X009498Y001136D03*
D24*
X009456Y001771D03*
X008728Y001612D03*
X008163Y001452D03*
X007591Y000855D03*
X006870Y000877D03*
X007164Y001482D03*
X006566Y001485D03*
X005418Y002158D03*
X004556Y001708D03*
X003081Y002780D03*
X002294Y002778D03*
X003366Y003570D03*
X002268Y004428D03*
X001627Y004601D03*
X004610Y004607D03*
X007162Y004860D03*
X009010Y004255D03*
X009623Y003032D03*
X010222Y002260D03*
X010428Y002702D03*
X010508Y004178D03*
X011975Y005655D03*
X011981Y008507D03*
X007726Y002767D03*
X008395Y000673D03*
X001373Y001376D03*
M02*
