G75*
%MOIN*%
%OFA0B0*%
%FSLAX24Y24*%
%IPPOS*%
%LPD*%
%AMOC8*
5,1,8,0,0,1.08239X$1,22.5*
%
%ADD10C,0.0436*%
%ADD11C,0.0600*%
%ADD12C,0.0357*%
%ADD13C,0.0100*%
D10*
X012142Y001699D03*
X012229Y001206D03*
X012315Y000714D03*
X013031Y002214D03*
X012539Y002301D03*
X013523Y002127D03*
D11*
X012359Y004969D03*
X011359Y004969D03*
X004281Y004880D03*
X003281Y004880D03*
D12*
X001015Y001526D03*
X001883Y002793D03*
X002954Y002789D03*
X003845Y003559D03*
X004692Y001929D03*
X006699Y001382D03*
X007595Y001131D03*
X008191Y000854D03*
X008613Y000858D03*
X009259Y000850D03*
X009376Y001281D03*
X009979Y002393D03*
X011184Y002806D03*
X012419Y003089D03*
X011439Y004185D03*
X010127Y005028D03*
X009854Y004358D03*
X008622Y005655D03*
X006492Y004273D03*
X008150Y002727D03*
X011593Y000811D03*
X013350Y004725D03*
X011852Y010849D03*
X004635Y005773D03*
X002235Y004866D03*
X001726Y004850D03*
D13*
X000926Y005803D02*
X000926Y013335D01*
X002667Y013335D01*
X003234Y012810D01*
X009283Y012812D01*
X009855Y013393D01*
X011775Y013393D01*
X011765Y012810D01*
X011765Y011834D01*
X013375Y011834D01*
X013375Y005665D01*
X009743Y005665D01*
X008945Y006464D01*
X004506Y006464D01*
X003652Y005609D01*
X000737Y005609D01*
X000726Y012995D01*
X000726Y013510D01*
X002750Y013510D01*
X003302Y012998D01*
X009145Y012997D01*
X009730Y013556D01*
X012013Y013557D01*
X012016Y012995D01*
X012027Y012053D01*
X013585Y012053D01*
X013585Y005466D01*
X009585Y005466D01*
X008848Y006204D01*
X007413Y006204D01*
X007413Y001203D01*
X007595Y001131D01*
X003548Y005803D02*
X000926Y005803D01*
X001113Y006035D02*
X001113Y013184D01*
X002586Y013184D01*
X003173Y012641D01*
X009356Y012641D01*
X009954Y013240D01*
X011529Y013240D01*
X011529Y013241D01*
X011534Y012640D01*
X011534Y011589D01*
X013162Y011589D01*
X013162Y005892D01*
X009846Y005892D01*
X009008Y006730D01*
X004475Y006730D01*
X003548Y005803D01*
X003435Y006035D02*
X001113Y006035D01*
X001299Y006282D02*
X001281Y012455D01*
X001281Y013031D01*
X002505Y013031D01*
X003098Y012455D01*
X009419Y012455D01*
X010048Y013085D01*
X011307Y013087D01*
X011288Y012455D01*
X011307Y011366D01*
X012961Y011366D01*
X012961Y006106D01*
X009993Y006106D01*
X009101Y006998D01*
X004398Y006998D01*
X003435Y006035D01*
X003317Y006282D02*
X001299Y006282D01*
X001532Y006510D02*
X001511Y012278D01*
X001511Y012879D01*
X002428Y012879D01*
X003007Y012279D01*
X009479Y012279D01*
X010136Y012935D01*
X011066Y012935D01*
X011066Y012937D01*
X011053Y012278D01*
X011074Y011156D01*
X012747Y011156D01*
X012747Y006312D01*
X010173Y006312D01*
X009200Y007286D01*
X004320Y007286D01*
X003317Y006282D01*
X003204Y006510D02*
X001532Y006510D01*
X003204Y006510D02*
X004245Y007551D01*
X009271Y007551D01*
X010303Y006519D01*
X010303Y006519D01*
X012505Y006519D01*
X012505Y010846D01*
X011852Y010849D01*
M02*
