G75*
%MOIN*%
%OFA0B0*%
%FSLAX24Y24*%
%IPPOS*%
%LPD*%
%AMOC8*
5,1,8,0,0,1.08239X$1,22.5*
%
%ADD10R,0.0177X0.0106*%
%ADD11R,0.0106X0.0177*%
%ADD12R,0.0354X0.0276*%
%ADD13R,0.0276X0.0354*%
%ADD14R,0.2047X0.2047*%
%ADD15C,0.0118*%
%ADD16R,0.0315X0.0315*%
%ADD17R,0.1500X0.0760*%
%ADD18R,0.0394X0.0591*%
%ADD19C,0.0050*%
%ADD20R,0.0173X0.0311*%
D10*
X002031Y001054D03*
X002031Y001223D03*
X002031Y001392D03*
X002031Y001562D03*
X002031Y001731D03*
X002031Y001900D03*
X002031Y002069D03*
X002031Y002239D03*
X002996Y002239D03*
X002996Y002069D03*
X002996Y001900D03*
X002996Y001731D03*
X002996Y001562D03*
X002996Y001392D03*
X002996Y001223D03*
X002996Y001054D03*
D11*
X002767Y001066D03*
X002598Y001066D03*
X002429Y001066D03*
X002259Y001066D03*
X002259Y002227D03*
X002429Y002227D03*
X002598Y002227D03*
X002767Y002227D03*
D12*
X003813Y001348D03*
X004251Y001337D03*
X004251Y000825D03*
X003813Y000836D03*
X004867Y000835D03*
X004867Y001347D03*
X005495Y001334D03*
X005495Y000822D03*
X002860Y003702D03*
X002860Y004214D03*
X010014Y001219D03*
X010014Y000708D03*
X010090Y003051D03*
X010090Y003563D03*
X010815Y003568D03*
X011272Y003571D03*
X011272Y003059D03*
X010815Y003056D03*
D13*
X000991Y000850D03*
X001502Y000850D03*
X001522Y001832D03*
X001010Y001832D03*
X001361Y002785D03*
X001873Y002785D03*
X001877Y003370D03*
X001365Y003370D03*
X004047Y003075D03*
X004559Y003075D03*
X008973Y003568D03*
X009485Y003568D03*
X009492Y004199D03*
X010004Y004199D03*
X011281Y004503D03*
X011792Y004503D03*
D14*
X007161Y003172D03*
D15*
X008400Y003270D02*
X008558Y003270D01*
X008558Y003073D02*
X008400Y003073D01*
X008400Y002876D02*
X008558Y002876D01*
X008558Y002680D02*
X008400Y002680D01*
X008400Y002483D02*
X008558Y002483D01*
X008558Y002286D02*
X008400Y002286D01*
X008400Y002089D02*
X008558Y002089D01*
X008243Y001932D02*
X008243Y001774D01*
X008046Y001774D02*
X008046Y001932D01*
X007850Y001932D02*
X007850Y001774D01*
X007653Y001774D02*
X007653Y001932D01*
X007456Y001932D02*
X007456Y001774D01*
X007259Y001774D02*
X007259Y001932D01*
X007062Y001932D02*
X007062Y001774D01*
X006865Y001774D02*
X006865Y001932D01*
X006668Y001932D02*
X006668Y001774D01*
X006472Y001774D02*
X006472Y001932D01*
X006275Y001932D02*
X006275Y001774D01*
X006078Y001774D02*
X006078Y001932D01*
X005921Y002089D02*
X005763Y002089D01*
X005763Y002286D02*
X005921Y002286D01*
X005921Y002483D02*
X005763Y002483D01*
X005763Y002680D02*
X005921Y002680D01*
X005921Y002876D02*
X005763Y002876D01*
X005763Y003073D02*
X005921Y003073D01*
X005921Y003270D02*
X005763Y003270D01*
X005763Y003467D02*
X005921Y003467D01*
X005921Y003664D02*
X005763Y003664D01*
X005763Y003861D02*
X005921Y003861D01*
X005921Y004058D02*
X005763Y004058D01*
X005763Y004254D02*
X005921Y004254D01*
X006078Y004412D02*
X006078Y004570D01*
X006275Y004570D02*
X006275Y004412D01*
X006472Y004412D02*
X006472Y004570D01*
X006668Y004570D02*
X006668Y004412D01*
X006865Y004412D02*
X006865Y004570D01*
X007062Y004570D02*
X007062Y004412D01*
X007259Y004412D02*
X007259Y004570D01*
X007456Y004570D02*
X007456Y004412D01*
X007653Y004412D02*
X007653Y004570D01*
X007850Y004570D02*
X007850Y004412D01*
X008046Y004412D02*
X008046Y004570D01*
X008243Y004570D02*
X008243Y004412D01*
X008400Y004254D02*
X008558Y004254D01*
X008558Y004058D02*
X008400Y004058D01*
X008400Y003861D02*
X008558Y003861D01*
X008558Y003664D02*
X008400Y003664D01*
X008400Y003467D02*
X008558Y003467D01*
D16*
X006164Y001425D03*
X006164Y000835D03*
X003357Y004032D03*
X003357Y004622D03*
D17*
X002235Y009831D03*
X010750Y007233D03*
D18*
X011970Y006643D03*
X001014Y010422D03*
D19*
X001440Y010426D02*
X010512Y010426D01*
X010560Y010474D02*
X001440Y010474D01*
X001440Y010523D02*
X010609Y010523D01*
X010658Y010571D02*
X001439Y010571D01*
X001439Y010620D02*
X010707Y010620D01*
X010755Y010668D02*
X001439Y010668D01*
X001439Y010717D02*
X010804Y010717D01*
X010853Y010765D02*
X001439Y010765D01*
X001439Y010814D02*
X010902Y010814D01*
X010950Y010862D02*
X001439Y010862D01*
X001438Y010911D02*
X010999Y010911D01*
X011048Y010959D02*
X001438Y010959D01*
X001438Y011008D02*
X011097Y011008D01*
X011145Y011056D02*
X001438Y011056D01*
X001438Y011105D02*
X011194Y011105D01*
X011243Y011153D02*
X001438Y011153D01*
X001438Y011202D02*
X011292Y011202D01*
X011340Y011250D02*
X001437Y011250D01*
X001437Y011299D02*
X011389Y011299D01*
X011438Y011347D02*
X001437Y011347D01*
X001437Y011396D02*
X011486Y011396D01*
X011535Y011444D02*
X001437Y011444D01*
X001437Y011493D02*
X011584Y011493D01*
X011633Y011541D02*
X001437Y011541D01*
X001436Y011590D02*
X011681Y011590D01*
X011730Y011638D02*
X001436Y011638D01*
X001436Y011687D02*
X011779Y011687D01*
X011828Y011735D02*
X001436Y011735D01*
X001436Y011784D02*
X011876Y011784D01*
X011900Y011807D02*
X009499Y009418D01*
X008213Y008925D01*
X006897Y008524D01*
X005555Y008216D01*
X004195Y008003D01*
X002824Y007885D01*
X001448Y007863D01*
X001436Y011807D01*
X011900Y011807D01*
X010463Y010377D02*
X001440Y010377D01*
X001440Y010329D02*
X010414Y010329D01*
X010365Y010280D02*
X001440Y010280D01*
X001440Y010232D02*
X010317Y010232D01*
X010268Y010183D02*
X001441Y010183D01*
X001441Y010135D02*
X010219Y010135D01*
X010171Y010086D02*
X001441Y010086D01*
X001441Y010038D02*
X010122Y010038D01*
X010073Y009989D02*
X001441Y009989D01*
X001441Y009941D02*
X010024Y009941D01*
X009976Y009892D02*
X001441Y009892D01*
X001442Y009844D02*
X009927Y009844D01*
X009878Y009795D02*
X001442Y009795D01*
X001442Y009747D02*
X009829Y009747D01*
X009781Y009698D02*
X001442Y009698D01*
X001442Y009650D02*
X009732Y009650D01*
X009683Y009601D02*
X001442Y009601D01*
X001442Y009553D02*
X009634Y009553D01*
X009586Y009504D02*
X001443Y009504D01*
X001443Y009456D02*
X009537Y009456D01*
X009471Y009407D02*
X001443Y009407D01*
X001443Y009359D02*
X009345Y009359D01*
X009218Y009310D02*
X001443Y009310D01*
X001443Y009262D02*
X009091Y009262D01*
X008965Y009213D02*
X001443Y009213D01*
X001444Y009165D02*
X008838Y009165D01*
X008861Y009068D02*
X011538Y009068D01*
X011538Y009116D02*
X009424Y009116D01*
X009987Y009165D02*
X011537Y009165D01*
X011537Y009202D02*
X011549Y005257D01*
X001085Y005257D01*
X003486Y007646D01*
X004772Y008139D01*
X006088Y008540D01*
X007430Y008848D01*
X008790Y009062D01*
X010161Y009180D01*
X011537Y009202D01*
X011538Y009019D02*
X008520Y009019D01*
X008458Y009019D02*
X001444Y009019D01*
X001444Y008971D02*
X008331Y008971D01*
X008211Y008971D02*
X011538Y008971D01*
X011538Y008922D02*
X007902Y008922D01*
X007884Y008825D02*
X001445Y008825D01*
X001445Y008777D02*
X007725Y008777D01*
X007594Y008874D02*
X011538Y008874D01*
X011538Y008825D02*
X007331Y008825D01*
X007406Y008680D02*
X001445Y008680D01*
X001445Y008728D02*
X007565Y008728D01*
X007247Y008631D02*
X001445Y008631D01*
X001445Y008583D02*
X007088Y008583D01*
X006929Y008534D02*
X001446Y008534D01*
X001446Y008486D02*
X006728Y008486D01*
X006517Y008437D02*
X001446Y008437D01*
X001446Y008389D02*
X006306Y008389D01*
X006275Y008583D02*
X011539Y008583D01*
X011539Y008631D02*
X006486Y008631D01*
X006697Y008680D02*
X011539Y008680D01*
X011539Y008728D02*
X006909Y008728D01*
X007120Y008777D02*
X011539Y008777D01*
X011539Y008534D02*
X006070Y008534D01*
X005911Y008486D02*
X011540Y008486D01*
X011540Y008437D02*
X005752Y008437D01*
X005883Y008292D02*
X001446Y008292D01*
X001446Y008340D02*
X006095Y008340D01*
X005672Y008243D02*
X001446Y008243D01*
X001447Y008195D02*
X005418Y008195D01*
X005433Y008340D02*
X011540Y008340D01*
X011540Y008292D02*
X005274Y008292D01*
X005115Y008243D02*
X011540Y008243D01*
X011540Y008195D02*
X004955Y008195D01*
X005109Y008146D02*
X001447Y008146D01*
X001447Y008098D02*
X004800Y008098D01*
X004796Y008146D02*
X011541Y008146D01*
X011541Y008098D02*
X004665Y008098D01*
X004538Y008049D02*
X011541Y008049D01*
X011541Y008001D02*
X004411Y008001D01*
X004492Y008049D02*
X001447Y008049D01*
X001447Y008001D02*
X004173Y008001D01*
X004158Y007904D02*
X011541Y007904D01*
X011541Y007952D02*
X004285Y007952D01*
X004031Y007855D02*
X011541Y007855D01*
X011542Y007807D02*
X003905Y007807D01*
X003778Y007758D02*
X011542Y007758D01*
X011542Y007710D02*
X003651Y007710D01*
X003524Y007661D02*
X011542Y007661D01*
X011542Y007613D02*
X003452Y007613D01*
X003403Y007564D02*
X011542Y007564D01*
X011542Y007516D02*
X003355Y007516D01*
X003306Y007467D02*
X011543Y007467D01*
X011543Y007419D02*
X003257Y007419D01*
X003208Y007370D02*
X011543Y007370D01*
X011543Y007322D02*
X003160Y007322D01*
X003111Y007273D02*
X011543Y007273D01*
X011543Y007225D02*
X003062Y007225D01*
X003014Y007176D02*
X011543Y007176D01*
X011544Y007128D02*
X002965Y007128D01*
X002916Y007079D02*
X011544Y007079D01*
X011544Y007031D02*
X002867Y007031D01*
X002819Y006982D02*
X011544Y006982D01*
X011544Y006934D02*
X002770Y006934D01*
X002721Y006885D02*
X011544Y006885D01*
X011544Y006837D02*
X002672Y006837D01*
X002624Y006788D02*
X011545Y006788D01*
X011545Y006740D02*
X002575Y006740D01*
X002526Y006691D02*
X011545Y006691D01*
X011545Y006643D02*
X002477Y006643D01*
X002429Y006594D02*
X011545Y006594D01*
X011545Y006546D02*
X002380Y006546D01*
X002331Y006497D02*
X011545Y006497D01*
X011546Y006449D02*
X002282Y006449D01*
X002234Y006400D02*
X011546Y006400D01*
X011546Y006352D02*
X002185Y006352D01*
X002136Y006303D02*
X011546Y006303D01*
X011546Y006255D02*
X002087Y006255D01*
X002039Y006206D02*
X011546Y006206D01*
X011546Y006158D02*
X001990Y006158D01*
X001941Y006109D02*
X011547Y006109D01*
X011547Y006061D02*
X001893Y006061D01*
X001844Y006012D02*
X011547Y006012D01*
X011547Y005964D02*
X001795Y005964D01*
X001746Y005915D02*
X011547Y005915D01*
X011547Y005867D02*
X001698Y005867D01*
X001649Y005818D02*
X011548Y005818D01*
X011548Y005770D02*
X001600Y005770D01*
X001551Y005721D02*
X011548Y005721D01*
X011548Y005673D02*
X001503Y005673D01*
X001454Y005624D02*
X011548Y005624D01*
X011548Y005576D02*
X001405Y005576D01*
X001356Y005527D02*
X011548Y005527D01*
X011549Y005479D02*
X001308Y005479D01*
X001259Y005430D02*
X011549Y005430D01*
X011549Y005382D02*
X001210Y005382D01*
X001161Y005333D02*
X011549Y005333D01*
X011549Y005285D02*
X001113Y005285D01*
X001447Y007904D02*
X003046Y007904D01*
X003609Y007952D02*
X001447Y007952D01*
X001444Y008874D02*
X008043Y008874D01*
X008202Y008922D02*
X001444Y008922D01*
X001444Y009068D02*
X008585Y009068D01*
X008711Y009116D02*
X001444Y009116D01*
X005592Y008389D02*
X011540Y008389D01*
D20*
X009498Y001136D03*
X009498Y000668D03*
X008734Y000668D03*
X008734Y001136D03*
M02*
