%
M48
M72
T01C0.0197
T02C0.0236
T03C0.0400
%
T01
X1373Y1376
X2294Y2778
X3081Y2780
X3366Y3570
X2268Y4428
X1627Y4601
X4610Y4607
X7162Y4860
X9010Y4255
X9623Y3032
X10222Y2260
X10428Y2702
X9456Y1771
X8728Y1612
X8163Y1452
X7591Y855
X6870Y877
X7164Y1482
X6566Y1485
X5418Y2158
X4556Y1708
X7726Y2767
X8395Y673
X10508Y4178
X11975Y5655
X11981Y8507
T02
X10985Y2223
X11478Y2136
X11970Y2050
X10675Y1180
X10588Y1672
X10762Y687
T03
X12366Y3129
X12366Y4129
X5095Y3882
X4095Y3882
X640Y3560
X640Y2560
M30
