G75*
%MOIN*%
%OFA0B0*%
%FSLAX24Y24*%
%IPPOS*%
%LPD*%
%AMOC8*
5,1,8,0,0,1.08239X$1,22.5*
%
%ADD10R,0.0177X0.0106*%
%ADD11R,0.0106X0.0177*%
%ADD12R,0.0354X0.0276*%
%ADD13R,0.0276X0.0354*%
%ADD14R,0.2047X0.2047*%
%ADD15C,0.0118*%
%ADD16R,0.0315X0.0315*%
%ADD17C,0.0500*%
%ADD18R,0.0500X0.0500*%
%ADD19C,0.0740*%
%ADD20R,0.1500X0.0760*%
%ADD21R,0.0394X0.0591*%
%ADD22C,0.0100*%
%ADD23R,0.0173X0.0311*%
%ADD24C,0.0357*%
%ADD25C,0.0160*%
D10*
X002031Y001054D03*
X002031Y001223D03*
X002031Y001392D03*
X002031Y001562D03*
X002031Y001731D03*
X002031Y001900D03*
X002031Y002069D03*
X002031Y002239D03*
X002996Y002239D03*
X002996Y002069D03*
X002996Y001900D03*
X002996Y001731D03*
X002996Y001562D03*
X002996Y001392D03*
X002996Y001223D03*
X002996Y001054D03*
D11*
X002767Y001066D03*
X002598Y001066D03*
X002429Y001066D03*
X002259Y001066D03*
X002259Y002227D03*
X002429Y002227D03*
X002598Y002227D03*
X002767Y002227D03*
D12*
X003813Y001348D03*
X004251Y001337D03*
X004251Y000825D03*
X003813Y000836D03*
X004867Y000835D03*
X004867Y001347D03*
X005495Y001334D03*
X005495Y000822D03*
X002860Y003702D03*
X002860Y004214D03*
X010014Y001219D03*
X010014Y000708D03*
X010090Y003051D03*
X010090Y003563D03*
X010815Y003568D03*
X011272Y003571D03*
X011272Y003059D03*
X010815Y003056D03*
D13*
X010004Y004199D03*
X009492Y004199D03*
X009485Y003568D03*
X008973Y003568D03*
X011281Y004503D03*
X011792Y004503D03*
X004559Y003075D03*
X004047Y003075D03*
X001877Y003370D03*
X001365Y003370D03*
X001361Y002785D03*
X001873Y002785D03*
X001522Y001832D03*
X001010Y001832D03*
X000991Y000850D03*
X001502Y000850D03*
D14*
X007161Y003172D03*
D15*
X008400Y003270D02*
X008558Y003270D01*
X008558Y003073D02*
X008400Y003073D01*
X008400Y002876D02*
X008558Y002876D01*
X008558Y002680D02*
X008400Y002680D01*
X008400Y002483D02*
X008558Y002483D01*
X008558Y002286D02*
X008400Y002286D01*
X008400Y002089D02*
X008558Y002089D01*
X008243Y001932D02*
X008243Y001774D01*
X008046Y001774D02*
X008046Y001932D01*
X007850Y001932D02*
X007850Y001774D01*
X007653Y001774D02*
X007653Y001932D01*
X007456Y001932D02*
X007456Y001774D01*
X007259Y001774D02*
X007259Y001932D01*
X007062Y001932D02*
X007062Y001774D01*
X006865Y001774D02*
X006865Y001932D01*
X006668Y001932D02*
X006668Y001774D01*
X006472Y001774D02*
X006472Y001932D01*
X006275Y001932D02*
X006275Y001774D01*
X006078Y001774D02*
X006078Y001932D01*
X005921Y002089D02*
X005763Y002089D01*
X005763Y002286D02*
X005921Y002286D01*
X005921Y002483D02*
X005763Y002483D01*
X005763Y002680D02*
X005921Y002680D01*
X005921Y002876D02*
X005763Y002876D01*
X005763Y003073D02*
X005921Y003073D01*
X005921Y003270D02*
X005763Y003270D01*
X005763Y003467D02*
X005921Y003467D01*
X005921Y003664D02*
X005763Y003664D01*
X005763Y003861D02*
X005921Y003861D01*
X005921Y004058D02*
X005763Y004058D01*
X005763Y004254D02*
X005921Y004254D01*
X006078Y004412D02*
X006078Y004570D01*
X006275Y004570D02*
X006275Y004412D01*
X006472Y004412D02*
X006472Y004570D01*
X006668Y004570D02*
X006668Y004412D01*
X006865Y004412D02*
X006865Y004570D01*
X007062Y004570D02*
X007062Y004412D01*
X007259Y004412D02*
X007259Y004570D01*
X007456Y004570D02*
X007456Y004412D01*
X007653Y004412D02*
X007653Y004570D01*
X007850Y004570D02*
X007850Y004412D01*
X008046Y004412D02*
X008046Y004570D01*
X008243Y004570D02*
X008243Y004412D01*
X008400Y004254D02*
X008558Y004254D01*
X008558Y004058D02*
X008400Y004058D01*
X008400Y003861D02*
X008558Y003861D01*
X008558Y003664D02*
X008400Y003664D01*
X008400Y003467D02*
X008558Y003467D01*
D16*
X006164Y001425D03*
X006164Y000835D03*
X003357Y004032D03*
X003357Y004622D03*
D17*
X010588Y001672D02*
X010675Y001180D01*
X010762Y000687D01*
X011478Y002136D02*
X011970Y002050D01*
X011478Y002136D02*
X010985Y002223D01*
D18*
G36*
X011680Y001847D02*
X011189Y001934D01*
X011276Y002425D01*
X011767Y002338D01*
X011680Y001847D01*
G37*
G36*
X010473Y000891D02*
X010386Y001382D01*
X010877Y001469D01*
X010964Y000978D01*
X010473Y000891D01*
G37*
D19*
X012366Y003129D03*
X012366Y004129D03*
X005095Y003882D03*
X004095Y003882D03*
X000640Y003560D03*
X000640Y002560D03*
D20*
X002235Y009831D03*
X010750Y007233D03*
D21*
X011970Y006643D03*
X001014Y010422D03*
D22*
X000991Y000549D02*
X004860Y000559D01*
X005818Y000554D01*
X005817Y001705D01*
X005820Y001801D01*
X005371Y001811D01*
X005071Y002021D01*
X005418Y002158D01*
X005296Y002433D02*
X005311Y002483D01*
X005842Y002483D01*
X005842Y002680D02*
X005226Y002679D01*
X005163Y002615D01*
X003620Y002611D01*
X003255Y003067D01*
X002774Y003077D01*
X002777Y003270D01*
X001855Y003272D01*
X001877Y003370D01*
X002172Y003440D02*
X002173Y003671D01*
X001610Y003671D01*
X001365Y003370D01*
X001364Y003075D01*
X002598Y003075D01*
X002598Y002227D01*
X002598Y002227D01*
X002429Y002227D02*
X002423Y002227D01*
X002423Y002759D01*
X002217Y002779D01*
X002294Y002778D01*
X001873Y002785D01*
X001522Y002469D02*
X001522Y001832D01*
X001522Y002239D01*
X002031Y002239D01*
X002031Y002069D02*
X001522Y002069D01*
X001522Y001900D01*
X002031Y001900D01*
X002259Y002227D02*
X002259Y002469D01*
X001522Y002469D01*
X001361Y002785D02*
X001364Y003075D01*
X001361Y002785D02*
X001360Y002133D01*
X001010Y002133D01*
X000640Y002560D01*
X001010Y002133D02*
X001010Y001832D01*
X001021Y000969D01*
X000991Y000850D01*
X000991Y000549D01*
X001513Y000720D02*
X002249Y000720D01*
X002259Y001066D01*
X002429Y001066D02*
X002429Y000720D01*
X002598Y000720D01*
X002598Y001066D01*
X002767Y001066D02*
X002767Y000720D01*
X002986Y000720D01*
X002996Y001054D01*
X002996Y001223D02*
X003511Y001223D01*
X003507Y000759D01*
X003756Y000761D01*
X003760Y000879D01*
X003813Y000836D01*
X004257Y000835D01*
X004251Y000825D01*
X004564Y000836D02*
X004571Y000836D01*
X004570Y001337D01*
X004251Y001337D01*
X004304Y001277D01*
X004184Y001442D01*
X004173Y001896D01*
X004095Y001896D01*
X003882Y001899D01*
X003503Y001897D01*
X003503Y001731D01*
X002996Y001731D01*
X002996Y001900D02*
X003503Y001897D01*
X003169Y002071D02*
X004208Y002068D01*
X004688Y002062D01*
X005302Y001649D01*
X005474Y001645D01*
X005488Y001337D01*
X005495Y001334D01*
X005181Y001347D02*
X005181Y000819D01*
X005495Y000822D01*
X005818Y000554D02*
X008074Y000555D01*
X008060Y000562D01*
X008063Y000559D01*
X007894Y000560D01*
X007897Y001066D01*
X007853Y001117D01*
X007850Y001853D01*
X008046Y001853D02*
X008044Y001593D01*
X008165Y001592D01*
X008163Y001452D01*
X008077Y001127D02*
X008076Y000969D01*
X008076Y000972D01*
X008078Y000557D01*
X008063Y000559D01*
X008395Y000673D02*
X008980Y000672D01*
X009498Y000668D01*
X008734Y000668D01*
X008734Y001136D02*
X008077Y001127D01*
X007653Y000887D02*
X007591Y000855D01*
X007653Y000887D02*
X007653Y001853D01*
X007456Y001853D02*
X007456Y001205D01*
X006870Y000877D01*
X006566Y000879D02*
X006161Y000879D01*
X006164Y000835D01*
X006566Y000879D02*
X006566Y001485D01*
X006865Y001485D01*
X006865Y001853D01*
X006865Y002876D01*
X007161Y003172D01*
X007807Y002820D01*
X007702Y002716D01*
X007726Y002767D01*
X007161Y003172D02*
X007899Y003949D01*
X007261Y003965D01*
X007259Y004491D01*
X007062Y004491D02*
X007062Y004792D01*
X007067Y004807D01*
X007162Y004860D01*
X006862Y005088D02*
X006863Y004483D01*
X006865Y004491D01*
X006668Y004491D02*
X006668Y004470D01*
X006666Y004932D01*
X004540Y004926D01*
X004392Y004939D01*
X003747Y004940D01*
X003635Y004868D01*
X003635Y004622D01*
X003357Y004622D01*
X003396Y004593D01*
X003348Y004509D01*
X002559Y004510D01*
X002559Y004009D01*
X001230Y004009D01*
X001234Y004868D01*
X001237Y005332D01*
X003510Y007151D01*
X003504Y007151D01*
X007451Y006430D01*
X007456Y006425D01*
X007456Y004491D01*
X007653Y004491D02*
X007653Y004928D01*
X010731Y004928D01*
X011281Y004503D01*
X011282Y004503D01*
X011282Y004199D01*
X012356Y004199D01*
X012366Y004129D01*
X011869Y004022D02*
X011869Y003130D01*
X012366Y003129D01*
X011684Y003571D02*
X011677Y002637D01*
X010925Y002638D01*
X010222Y002260D01*
X009594Y002599D01*
X009280Y002600D01*
X009280Y003269D01*
X008479Y003270D01*
X008479Y003467D01*
X008479Y003664D02*
X008897Y003656D01*
X008973Y003568D01*
X008479Y003861D02*
X009643Y003865D01*
X009646Y003862D01*
X009480Y003868D01*
X009478Y004151D01*
X009492Y004199D01*
X009492Y004522D01*
X010619Y004522D01*
X010815Y004326D01*
X010815Y003568D01*
X010815Y003567D01*
X011272Y003571D01*
X011684Y003571D01*
X011869Y004022D02*
X010997Y004022D01*
X010997Y004459D01*
X010687Y004729D01*
X010659Y004757D01*
X007850Y004757D01*
X007850Y004491D01*
X006862Y005088D02*
X006756Y005103D01*
X003475Y005100D01*
X003245Y004925D01*
X002270Y004925D01*
X002270Y004658D01*
X002268Y004428D01*
X002860Y004214D02*
X003357Y004032D01*
X003727Y004365D01*
X004373Y004365D01*
X004522Y004216D01*
X004697Y004216D01*
X004848Y004366D01*
X005274Y004368D01*
X005591Y004196D01*
X005593Y003868D01*
X005842Y003861D01*
X005842Y003467D02*
X005942Y003470D01*
X005627Y003472D01*
X005096Y003471D01*
X005095Y003882D01*
X004902Y003397D02*
X004989Y003270D01*
X005828Y003270D01*
X005842Y003270D01*
X005842Y003073D02*
X005765Y003073D01*
X004666Y003075D01*
X004556Y003024D01*
X004559Y003075D01*
X004902Y003397D02*
X004085Y003399D01*
X004095Y003882D01*
X003366Y003570D02*
X003776Y003085D01*
X004047Y003075D01*
X003751Y002788D02*
X003344Y003247D01*
X002964Y003247D01*
X002966Y003439D01*
X002172Y003440D01*
X002631Y003833D02*
X001022Y003833D01*
X000640Y003560D01*
X001022Y003833D02*
X001017Y004973D01*
X000848Y005090D01*
X000839Y005099D01*
X000839Y005502D01*
X001014Y005678D01*
X001014Y010422D01*
X001445Y010435D02*
X010516Y010435D01*
X010614Y010533D02*
X001445Y010533D01*
X001445Y010632D02*
X010713Y010632D01*
X010811Y010730D02*
X001446Y010730D01*
X001446Y010829D02*
X010910Y010829D01*
X011008Y010927D02*
X001446Y010927D01*
X001446Y011026D02*
X011107Y011026D01*
X011205Y011124D02*
X001446Y011124D01*
X001446Y011223D02*
X011304Y011223D01*
X011402Y011321D02*
X001447Y011321D01*
X001447Y011420D02*
X011501Y011420D01*
X011599Y011518D02*
X001447Y011518D01*
X001447Y011617D02*
X011698Y011617D01*
X011796Y011715D02*
X001447Y011715D01*
X001448Y011800D02*
X001442Y008588D01*
X007451Y008588D01*
X007451Y008588D01*
X009499Y009418D01*
X011881Y011800D01*
X001448Y011800D01*
X001445Y010336D02*
X010417Y010336D01*
X010319Y010238D02*
X001445Y010238D01*
X001444Y010139D02*
X010220Y010139D01*
X010122Y010041D02*
X001444Y010041D01*
X001444Y009942D02*
X010023Y009942D01*
X009925Y009844D02*
X001444Y009844D01*
X001444Y009745D02*
X009826Y009745D01*
X009728Y009647D02*
X001444Y009647D01*
X001443Y009548D02*
X009629Y009548D01*
X009531Y009450D02*
X001443Y009450D01*
X001443Y009351D02*
X009334Y009351D01*
X009091Y009253D02*
X001443Y009253D01*
X001443Y009154D02*
X008848Y009154D01*
X008605Y009056D02*
X001442Y009056D01*
X001442Y008957D02*
X008362Y008957D01*
X008119Y008859D02*
X001442Y008859D01*
X001442Y008760D02*
X007875Y008760D01*
X007632Y008662D02*
X001442Y008662D01*
X003024Y007184D02*
X011541Y007184D01*
X011541Y007086D02*
X002925Y007086D01*
X002827Y006987D02*
X011541Y006987D01*
X011540Y006889D02*
X002728Y006889D01*
X002630Y006790D02*
X011540Y006790D01*
X011540Y006692D02*
X002531Y006692D01*
X002433Y006593D02*
X011540Y006593D01*
X011540Y006495D02*
X002334Y006495D01*
X002236Y006396D02*
X011539Y006396D01*
X011539Y006298D02*
X002137Y006298D01*
X002039Y006199D02*
X011539Y006199D01*
X011539Y006101D02*
X001940Y006101D01*
X001842Y006002D02*
X011539Y006002D01*
X011539Y005904D02*
X001743Y005904D01*
X001645Y005805D02*
X011538Y005805D01*
X011538Y005707D02*
X001546Y005707D01*
X001448Y005608D02*
X011538Y005608D01*
X011538Y005510D02*
X001349Y005510D01*
X001251Y005411D02*
X011538Y005411D01*
X011537Y005313D02*
X001152Y005313D01*
X001104Y005265D02*
X003486Y007646D01*
X005534Y008476D01*
X005534Y008476D01*
X011543Y008476D01*
X011537Y005265D01*
X001104Y005265D01*
X001017Y004973D02*
X001017Y004928D01*
X002631Y003833D02*
X002860Y003702D01*
X003243Y003576D01*
X003366Y003570D01*
X002774Y003077D02*
X002767Y002227D01*
X002996Y002239D02*
X004081Y002237D01*
X004342Y002236D01*
X004695Y002236D01*
X004763Y002236D01*
X005071Y002021D01*
X004873Y002432D02*
X005296Y002433D01*
X004873Y002432D02*
X003342Y002431D01*
X003081Y002780D01*
X003751Y002788D02*
X005040Y002788D01*
X005117Y002876D01*
X005795Y002875D01*
X005842Y002876D01*
X006275Y001853D02*
X006275Y001399D01*
X006164Y001425D01*
X005181Y001347D02*
X005134Y001347D01*
X004867Y001347D01*
X004556Y001708D01*
X003813Y001348D02*
X003735Y001558D01*
X002996Y001562D01*
X002996Y001392D02*
X003508Y001392D01*
X003508Y000730D01*
X002986Y000720D01*
X002767Y000720D02*
X002598Y000720D01*
X002429Y000720D02*
X002249Y000720D01*
X001513Y000720D02*
X001502Y000850D01*
X001509Y001376D01*
X001373Y001376D01*
X001522Y001832D02*
X001522Y001900D01*
X002259Y002227D02*
X002259Y002227D01*
X002996Y002069D02*
X003169Y002071D01*
X002996Y001392D02*
X003511Y001392D01*
X003511Y001223D01*
X003818Y000871D02*
X003813Y000836D01*
X004564Y000836D02*
X004867Y000835D01*
X004860Y000559D01*
X008243Y001853D02*
X008484Y001612D01*
X008728Y001612D01*
X008867Y001918D02*
X008476Y001913D01*
X008479Y002089D01*
X008735Y002098D02*
X009093Y002098D01*
X009456Y001771D01*
X009275Y001478D02*
X010013Y001472D01*
X010014Y001219D01*
X009712Y001137D02*
X009551Y001137D01*
X009498Y001136D01*
X009712Y001137D02*
X009712Y000709D01*
X010014Y000708D01*
X010762Y000687D02*
X010675Y001180D01*
X010588Y001672D01*
X010582Y001544D01*
X010033Y001659D01*
X009351Y002265D01*
X008901Y002266D01*
X008901Y002877D01*
X008479Y002876D01*
X008479Y003073D02*
X009077Y003075D01*
X009078Y002427D01*
X009494Y002427D01*
X010042Y001952D01*
X010266Y001951D01*
X010985Y002223D01*
X011478Y002136D01*
X011970Y002050D01*
X011271Y002808D02*
X010681Y002808D01*
X010431Y002697D01*
X010428Y002702D01*
X010508Y003056D02*
X010508Y003058D01*
X010508Y004178D01*
X010440Y004198D01*
X010004Y004199D01*
X009766Y003862D02*
X009754Y003842D01*
X009766Y003862D02*
X009762Y003566D01*
X010090Y003563D01*
X009766Y003862D02*
X009480Y003868D01*
X009485Y003568D02*
X009478Y003034D01*
X009623Y003032D01*
X009623Y003058D01*
X010090Y003051D01*
X010508Y003058D01*
X010508Y003056D02*
X010815Y003056D01*
X011272Y003059D02*
X011272Y002837D01*
X011271Y002808D01*
X010531Y004189D02*
X010508Y004178D01*
X010523Y004206D01*
X011459Y005326D02*
X011423Y005665D01*
X011792Y005665D01*
X011792Y005655D01*
X011975Y005655D01*
X011792Y005655D02*
X011792Y004503D01*
X011423Y005665D02*
X011377Y006092D01*
X011293Y006073D01*
X011155Y006075D01*
X010309Y006085D01*
X010309Y007617D01*
X009619Y007617D01*
X009619Y007453D01*
X004168Y007453D01*
X007841Y009136D01*
X005506Y008465D02*
X011543Y008465D01*
X011543Y008366D02*
X005263Y008366D01*
X005020Y008268D02*
X011543Y008268D01*
X011543Y008169D02*
X004777Y008169D01*
X004533Y008071D02*
X011543Y008071D01*
X011542Y007972D02*
X004290Y007972D01*
X004047Y007874D02*
X011542Y007874D01*
X011542Y007775D02*
X003804Y007775D01*
X003561Y007677D02*
X011542Y007677D01*
X011542Y007578D02*
X003418Y007578D01*
X003319Y007480D02*
X011541Y007480D01*
X011541Y007381D02*
X003221Y007381D01*
X003122Y007283D02*
X011541Y007283D01*
X011970Y006643D02*
X011970Y008507D01*
X011981Y008507D01*
X006469Y004754D02*
X006472Y004491D01*
X006469Y004754D02*
X004616Y004752D01*
X004610Y004607D01*
X003510Y007151D02*
X004168Y007453D01*
X008479Y002680D02*
X008479Y002483D01*
X008735Y002483D01*
X008735Y002098D01*
X008867Y001918D02*
X009275Y001478D01*
D23*
X009498Y001136D03*
X009498Y000668D03*
X008734Y000668D03*
X008734Y001136D03*
D24*
X008728Y001612D03*
X008163Y001452D03*
X007591Y000855D03*
X006870Y000877D03*
X007164Y001482D03*
X006566Y001485D03*
X005418Y002158D03*
X004556Y001708D03*
X003081Y002780D03*
X002294Y002778D03*
X003366Y003570D03*
X002268Y004428D03*
X001627Y004601D03*
X004610Y004607D03*
X007162Y004860D03*
X009010Y004255D03*
X009623Y003032D03*
X010222Y002260D03*
X010428Y002702D03*
X009456Y001771D03*
X008395Y000673D03*
X007726Y002767D03*
X010508Y004178D03*
X011975Y005655D03*
X011981Y008507D03*
X001373Y001376D03*
D25*
X001572Y006001D02*
X000866Y006005D01*
X000866Y009946D01*
X000996Y009946D01*
X000996Y010403D01*
X001033Y010403D01*
X001033Y009946D01*
X001235Y009946D01*
X001254Y009951D01*
X001252Y008667D01*
X001252Y008667D01*
X001252Y008588D01*
X001251Y008509D01*
X001252Y008509D02*
X001307Y008454D01*
X001362Y008398D01*
X001363Y008398D01*
X001441Y008398D01*
X001520Y008398D01*
X004835Y008398D01*
X003449Y007836D01*
X003407Y007836D01*
X003379Y007808D01*
X003342Y007793D01*
X003326Y007755D01*
X001572Y006001D01*
X001725Y006154D02*
X000866Y006154D01*
X000866Y006312D02*
X001883Y006312D01*
X002042Y006471D02*
X000866Y006471D01*
X000866Y006629D02*
X002200Y006629D01*
X002359Y006788D02*
X000866Y006788D01*
X000866Y006946D02*
X002517Y006946D01*
X002676Y007105D02*
X000866Y007105D01*
X000866Y007263D02*
X002834Y007263D01*
X002993Y007422D02*
X000866Y007422D01*
X000866Y007580D02*
X003151Y007580D01*
X003310Y007739D02*
X000866Y007739D01*
X000866Y007897D02*
X003599Y007897D01*
X003990Y008056D02*
X000866Y008056D01*
X000866Y008214D02*
X004382Y008214D01*
X004773Y008373D02*
X000866Y008373D01*
X000866Y008531D02*
X001251Y008531D01*
X001251Y008509D02*
X001252Y008509D01*
X001252Y008509D01*
X001363Y008398D02*
X001363Y008398D01*
X001520Y008398D02*
X001520Y008398D01*
X001252Y008690D02*
X000866Y008690D01*
X000866Y008848D02*
X001252Y008848D01*
X001252Y009007D02*
X000866Y009007D01*
X000866Y009165D02*
X001253Y009165D01*
X001253Y009324D02*
X000866Y009324D01*
X000866Y009482D02*
X001253Y009482D01*
X001253Y009641D02*
X000866Y009641D01*
X000866Y009799D02*
X001254Y009799D01*
X001033Y009958D02*
X000996Y009958D01*
X000996Y010116D02*
X001033Y010116D01*
X001033Y010275D02*
X000996Y010275D01*
X000996Y010440D02*
X000996Y010897D01*
X000866Y010897D01*
X000866Y011820D01*
X001258Y011820D01*
X001258Y011800D01*
X001256Y010891D01*
X001235Y010897D01*
X001033Y010897D01*
X001033Y010440D01*
X000996Y010440D01*
X000996Y010592D02*
X001033Y010592D01*
X001033Y010750D02*
X000996Y010750D01*
X000866Y010909D02*
X001256Y010909D01*
X001256Y011067D02*
X000866Y011067D01*
X000866Y011226D02*
X001256Y011226D01*
X001257Y011384D02*
X000866Y011384D01*
X000866Y011543D02*
X001257Y011543D01*
X001257Y011701D02*
X000866Y011701D01*
X002235Y009831D02*
X007841Y009136D01*
X006211Y008970D01*
X007011Y007495D01*
X008150Y008666D02*
X009536Y009228D01*
X009577Y009228D01*
X009606Y009256D01*
X009643Y009271D01*
X009659Y009309D01*
X012071Y011721D01*
X012071Y011820D01*
X012117Y011820D01*
X012117Y007118D01*
X011989Y007118D01*
X011989Y006661D01*
X011952Y006661D01*
X011952Y007118D01*
X011750Y007118D01*
X011731Y007113D01*
X011733Y008397D01*
X011733Y008398D01*
X011733Y008476D01*
X011733Y008555D01*
X011678Y008610D01*
X011622Y008666D01*
X011622Y008666D01*
X011622Y008666D01*
X011544Y008666D01*
X011465Y008666D01*
X008150Y008666D01*
X008207Y008690D02*
X012117Y008690D01*
X012117Y008848D02*
X008599Y008848D01*
X008990Y009007D02*
X012117Y009007D01*
X012117Y009165D02*
X009381Y009165D01*
X009673Y009324D02*
X012117Y009324D01*
X012117Y009482D02*
X009832Y009482D01*
X009990Y009641D02*
X012117Y009641D01*
X012117Y009799D02*
X010149Y009799D01*
X010307Y009958D02*
X012117Y009958D01*
X012117Y010116D02*
X010466Y010116D01*
X010624Y010275D02*
X012117Y010275D01*
X012117Y010433D02*
X010783Y010433D01*
X010941Y010592D02*
X012117Y010592D01*
X012117Y010750D02*
X011100Y010750D01*
X011258Y010909D02*
X012117Y010909D01*
X012117Y011067D02*
X011417Y011067D01*
X011575Y011226D02*
X012117Y011226D01*
X012117Y011384D02*
X011734Y011384D01*
X011892Y011543D02*
X012117Y011543D01*
X012117Y011701D02*
X012051Y011701D01*
X011465Y008666D02*
X011465Y008666D01*
X011733Y008555D02*
X011733Y008555D01*
X011733Y008555D01*
X011733Y008531D02*
X012117Y008531D01*
X012117Y008373D02*
X011733Y008373D01*
X011733Y008214D02*
X012117Y008214D01*
X012117Y008056D02*
X011733Y008056D01*
X011732Y007897D02*
X012117Y007897D01*
X012117Y007739D02*
X011732Y007739D01*
X011732Y007580D02*
X012117Y007580D01*
X012117Y007422D02*
X011731Y007422D01*
X011731Y007263D02*
X012117Y007263D01*
X011989Y007105D02*
X011952Y007105D01*
X011952Y006946D02*
X011989Y006946D01*
X011989Y006788D02*
X011952Y006788D01*
X011952Y006624D02*
X011989Y006624D01*
X011989Y006167D01*
X012117Y006167D01*
X012117Y005946D01*
X012105Y005946D01*
X012039Y005974D01*
X011912Y005974D01*
X011849Y005948D01*
X011729Y005948D01*
X011729Y006173D01*
X011750Y006167D01*
X011952Y006167D01*
X011952Y006624D01*
X011952Y006471D02*
X011989Y006471D01*
X011989Y006312D02*
X011952Y006312D01*
X012117Y006154D02*
X011729Y006154D01*
X011729Y005995D02*
X012117Y005995D01*
X010750Y007233D02*
X002235Y009831D01*
M02*
