G75*
%MOIN*%
%OFA0B0*%
%FSLAX24Y24*%
%IPPOS*%
%LPD*%
%AMOC8*
5,1,8,0,0,1.08239X$1,22.5*
%
%ADD10C,0.0500*%
%ADD11R,0.0500X0.0500*%
%ADD12R,0.0315X0.0315*%
%ADD13R,0.0354X0.0276*%
%ADD14R,0.0610X0.0394*%
%ADD15C,0.0740*%
%ADD16R,0.1500X0.0760*%
%ADD17R,0.0394X0.0591*%
%ADD18C,0.0100*%
%ADD19R,0.0531X0.0571*%
%ADD20R,0.0531X0.0315*%
%ADD21R,0.0453X0.0965*%
%ADD22R,0.0217X0.0249*%
%ADD23C,0.0106*%
%ADD24C,0.0357*%
D10*
X010675Y001180D02*
X010588Y001672D01*
X010675Y001180D02*
X010762Y000687D01*
X011478Y002136D02*
X011970Y002050D01*
X011478Y002136D02*
X010985Y002223D01*
D11*
G36*
X011680Y001847D02*
X011189Y001934D01*
X011276Y002425D01*
X011767Y002338D01*
X011680Y001847D01*
G37*
G36*
X010473Y000891D02*
X010386Y001382D01*
X010877Y001469D01*
X010964Y000978D01*
X010473Y000891D01*
G37*
D12*
X002877Y003902D03*
X002877Y004493D03*
D13*
X003404Y004705D03*
X003404Y004193D03*
X006870Y003349D03*
X006870Y002837D03*
X008981Y002603D03*
X008981Y002091D03*
X008984Y003351D03*
X008984Y003863D03*
D14*
X006070Y003712D03*
X006070Y004736D03*
D15*
X005095Y003882D03*
X004095Y003882D03*
X000640Y003560D03*
X000640Y002560D03*
X012366Y003129D03*
X012366Y004129D03*
D16*
X010760Y009732D03*
X002272Y007125D03*
D17*
X001051Y006535D03*
X011981Y010322D03*
D18*
X000836Y002122D02*
X000836Y000539D01*
X001735Y000539D01*
X001722Y002423D01*
X003270Y002416D01*
X003284Y000539D01*
X009673Y000539D01*
X009668Y001576D01*
X009619Y001527D01*
X009513Y001483D01*
X009398Y001483D01*
X009292Y001527D01*
X009211Y001608D01*
X009167Y001714D01*
X009167Y001803D01*
X009000Y001803D01*
X009000Y002072D01*
X009000Y002110D01*
X009308Y002110D01*
X009308Y002248D01*
X009298Y002286D01*
X009278Y002321D01*
X009250Y002349D01*
X009216Y002368D01*
X009268Y002419D01*
X009268Y002443D01*
X009379Y002443D01*
X009472Y002536D01*
X009472Y002562D01*
X009663Y002560D01*
X009666Y001969D01*
X009619Y002016D01*
X009513Y002060D01*
X009398Y002060D01*
X009308Y002022D01*
X009308Y002072D01*
X009000Y002072D01*
X008962Y002072D01*
X008962Y001803D01*
X008945Y001803D01*
X008972Y001775D01*
X009016Y001669D01*
X009016Y001554D01*
X008972Y001448D01*
X008891Y001367D01*
X008785Y001323D01*
X008671Y001323D01*
X008565Y001367D01*
X008492Y001440D01*
X008460Y001424D01*
X008451Y001415D01*
X008451Y001395D01*
X008407Y001289D01*
X008326Y001208D01*
X008220Y001164D01*
X008105Y001164D01*
X007999Y001208D01*
X007973Y001235D01*
X007973Y000966D01*
X007975Y000902D01*
X007973Y000900D01*
X007973Y000897D01*
X007928Y000852D01*
X007884Y000805D01*
X007881Y000805D01*
X007880Y000804D01*
X007880Y000798D01*
X007836Y000692D01*
X007755Y000610D01*
X007649Y000567D01*
X007534Y000567D01*
X007428Y000610D01*
X007347Y000692D01*
X007303Y000798D01*
X007303Y000857D01*
X007291Y000859D01*
X007159Y000858D01*
X007159Y000819D01*
X007115Y000713D01*
X007034Y000632D01*
X006928Y000588D01*
X006813Y000588D01*
X006707Y000632D01*
X006626Y000713D01*
X006582Y000819D01*
X006582Y000934D01*
X006626Y001040D01*
X006704Y001119D01*
X006704Y001119D01*
X006704Y001185D01*
X006704Y002023D01*
X006692Y002046D01*
X006704Y002087D01*
X006705Y002129D01*
X006723Y002148D01*
X006731Y002173D01*
X006766Y002192D01*
X007043Y002549D01*
X006889Y002549D01*
X006889Y002818D01*
X006851Y002818D01*
X006543Y002818D01*
X006543Y002679D01*
X006553Y002641D01*
X006573Y002607D01*
X006601Y002579D01*
X006635Y002559D01*
X006673Y002549D01*
X006851Y002549D01*
X006851Y002818D01*
X006851Y002856D01*
X006543Y002856D01*
X006543Y002995D01*
X006553Y003033D01*
X006573Y003067D01*
X006588Y003082D01*
X005582Y003082D01*
X005579Y002404D01*
X005581Y002403D01*
X005663Y002322D01*
X005706Y002216D01*
X005706Y002101D01*
X005663Y001995D01*
X005581Y001914D01*
X005475Y001870D01*
X005361Y001870D01*
X005255Y001914D01*
X005174Y001995D01*
X005130Y002101D01*
X005130Y002216D01*
X005174Y002322D01*
X005255Y002403D01*
X005259Y002405D01*
X005262Y003082D01*
X003145Y003082D01*
X003051Y003175D01*
X002717Y003510D01*
X002717Y003635D01*
X002674Y003635D01*
X002609Y003699D01*
X002609Y004105D01*
X002674Y004170D01*
X003077Y004170D01*
X003077Y004174D01*
X003385Y004174D01*
X003423Y004174D01*
X003423Y003906D01*
X003601Y003906D01*
X003615Y003909D01*
X003615Y003787D01*
X003688Y003610D01*
X003823Y003475D01*
X003999Y003402D01*
X004190Y003402D01*
X004367Y003475D01*
X004502Y003610D01*
X004575Y003787D01*
X004575Y003978D01*
X004502Y004154D01*
X004367Y004289D01*
X004190Y004362D01*
X003999Y004362D01*
X003823Y004289D01*
X003708Y004174D01*
X003423Y004174D01*
X003423Y004212D01*
X003731Y004212D01*
X003731Y004351D01*
X003721Y004389D01*
X003701Y004423D01*
X003673Y004451D01*
X003640Y004470D01*
X003691Y004522D01*
X003691Y004543D01*
X003947Y004540D01*
X004350Y004483D01*
X004366Y004444D01*
X004447Y004362D01*
X004553Y004319D01*
X004668Y004319D01*
X004774Y004362D01*
X004855Y004444D01*
X004899Y004550D01*
X004899Y004664D01*
X004855Y004770D01*
X004830Y004795D01*
X005655Y004795D01*
X005655Y004494D01*
X005719Y004429D01*
X006420Y004429D01*
X006485Y004494D01*
X006485Y004978D01*
X006466Y004997D01*
X006907Y004997D01*
X006873Y004917D01*
X006873Y004885D01*
X006640Y004885D01*
X006547Y004791D01*
X006547Y004338D01*
X006469Y004338D01*
X006150Y004019D01*
X005719Y004019D01*
X005655Y003955D01*
X005655Y003470D01*
X005719Y003406D01*
X006420Y003406D01*
X006485Y003470D01*
X006485Y003901D01*
X006602Y004018D01*
X006773Y004018D01*
X006867Y004112D01*
X006867Y004565D01*
X007101Y004565D01*
X007102Y004563D01*
X007167Y004565D01*
X007231Y004565D01*
X007233Y004566D01*
X007235Y004566D01*
X007253Y004585D01*
X007325Y004615D01*
X007406Y004696D01*
X007450Y004802D01*
X007450Y004917D01*
X007417Y004997D01*
X011397Y004997D01*
X011396Y004832D01*
X011396Y004766D01*
X011396Y004700D01*
X011396Y004700D01*
X011396Y003205D01*
X011395Y003204D01*
X011396Y003139D01*
X011396Y003074D01*
X011397Y003073D01*
X011397Y003040D01*
X010690Y002870D01*
X010668Y002870D01*
X010592Y002947D01*
X010486Y002991D01*
X010371Y002991D01*
X010265Y002947D01*
X010193Y002875D01*
X009476Y002882D01*
X009478Y002995D01*
X009475Y002998D01*
X009489Y004514D01*
X009500Y004537D01*
X009496Y004548D01*
X009500Y004554D01*
X009490Y004601D01*
X009490Y004649D01*
X009476Y004664D01*
X009472Y004683D01*
X009447Y004699D01*
X009446Y004702D01*
X009432Y004709D01*
X009431Y004709D01*
X009397Y004744D01*
X009391Y004744D01*
X009390Y004745D01*
X009375Y004746D01*
X009360Y004755D01*
X009347Y004752D01*
X009328Y004762D01*
X009317Y004758D01*
X009310Y004761D01*
X009281Y004751D01*
X009258Y004753D01*
X009252Y004747D01*
X009184Y004746D01*
X008557Y004751D01*
X008556Y004752D01*
X008491Y004752D01*
X008425Y004752D01*
X008425Y004752D01*
X008424Y004752D01*
X008378Y004705D01*
X008331Y004659D01*
X008331Y004658D01*
X008330Y004658D01*
X008330Y004603D01*
X007450Y004603D01*
X007384Y004604D01*
X007384Y004603D01*
X007383Y004603D01*
X007337Y004557D01*
X007290Y004510D01*
X007290Y004509D01*
X007290Y004444D01*
X007289Y004333D01*
X007146Y004333D01*
X007052Y004240D01*
X007052Y003847D01*
X007052Y003781D01*
X007052Y003715D01*
X007053Y003715D01*
X007053Y003597D01*
X006648Y003597D01*
X006583Y003532D01*
X006583Y003402D01*
X005424Y003402D01*
X005358Y003402D01*
X005357Y003402D01*
X003278Y003402D01*
X003045Y003635D01*
X003080Y003635D01*
X003144Y003699D01*
X003144Y003930D01*
X003169Y003916D01*
X003207Y003906D01*
X003385Y003906D01*
X003385Y004174D01*
X003385Y004212D01*
X003077Y004212D01*
X003077Y004225D01*
X002674Y004225D01*
X002609Y004290D01*
X002609Y004634D01*
X002469Y004635D01*
X002513Y004591D01*
X002557Y004485D01*
X002557Y004370D01*
X002513Y004264D01*
X002432Y004183D01*
X002326Y004139D01*
X002211Y004139D01*
X002105Y004183D01*
X002024Y004264D01*
X001980Y004370D01*
X001980Y004485D01*
X002024Y004591D01*
X002105Y004672D01*
X002107Y004673D01*
X002107Y004730D01*
X002107Y004730D01*
X002107Y004796D01*
X002107Y004861D01*
X002107Y004862D01*
X002107Y004863D01*
X002154Y004909D01*
X002200Y004955D01*
X002201Y004955D01*
X002201Y004956D01*
X002267Y004956D01*
X002333Y004956D01*
X002333Y004955D01*
X002835Y004953D01*
X002907Y004954D01*
X002907Y004958D01*
X002907Y004997D01*
X001485Y004997D01*
X001418Y004997D01*
X001418Y004997D01*
X001371Y005044D01*
X001324Y005090D01*
X001324Y005090D01*
X001324Y005091D01*
X001324Y005156D01*
X001323Y006109D01*
X001306Y006100D01*
X001268Y006090D01*
X001100Y006090D01*
X001100Y006486D01*
X001003Y006486D01*
X001003Y006090D01*
X000836Y006090D01*
X000836Y004043D01*
X000840Y004042D01*
X000913Y004005D01*
X000979Y003957D01*
X001037Y003899D01*
X001085Y003832D01*
X001122Y003760D01*
X001147Y003682D01*
X001159Y003610D01*
X000836Y003610D01*
X000836Y003510D01*
X001159Y003510D01*
X001147Y003438D01*
X001122Y003360D01*
X001085Y003287D01*
X001037Y003221D01*
X000979Y003163D01*
X000913Y003115D01*
X000840Y003078D01*
X000836Y003077D01*
X000836Y002998D01*
X000912Y002967D01*
X001047Y002832D01*
X001120Y002655D01*
X001120Y002464D01*
X001047Y002288D01*
X000912Y002153D01*
X000836Y002122D01*
X000836Y002062D02*
X001724Y002062D01*
X001725Y001964D02*
X000836Y001964D01*
X000836Y001865D02*
X001726Y001865D01*
X001726Y001767D02*
X000836Y001767D01*
X000836Y001668D02*
X001727Y001668D01*
X001728Y001570D02*
X000836Y001570D01*
X000836Y001471D02*
X001729Y001471D01*
X001729Y001373D02*
X000836Y001373D01*
X000836Y001274D02*
X001730Y001274D01*
X001731Y001176D02*
X000836Y001176D01*
X000836Y001077D02*
X001731Y001077D01*
X001732Y000979D02*
X000836Y000979D01*
X000836Y000880D02*
X001733Y000880D01*
X001733Y000782D02*
X000836Y000782D01*
X000836Y000683D02*
X001734Y000683D01*
X001735Y000585D02*
X000836Y000585D01*
X001373Y001376D02*
X001394Y001522D01*
X001724Y002161D02*
X000920Y002161D01*
X001018Y002259D02*
X001723Y002259D01*
X001722Y002358D02*
X001076Y002358D01*
X001117Y002456D02*
X005259Y002456D01*
X005260Y002555D02*
X003263Y002555D01*
X003244Y002536D02*
X003325Y002617D01*
X003369Y002723D01*
X003369Y002838D01*
X003325Y002944D01*
X003244Y003025D01*
X003138Y003069D01*
X003023Y003069D01*
X002917Y003025D01*
X002836Y002944D01*
X002834Y002940D01*
X002540Y002939D01*
X002539Y002941D01*
X002457Y003022D01*
X002351Y003066D01*
X002237Y003066D01*
X002131Y003022D01*
X002050Y002941D01*
X002006Y002835D01*
X002006Y002720D01*
X002050Y002614D01*
X002131Y002533D01*
X002237Y002489D01*
X002351Y002489D01*
X002457Y002533D01*
X002539Y002614D01*
X002540Y002619D01*
X002835Y002620D01*
X002836Y002617D01*
X002917Y002536D01*
X003023Y002492D01*
X003138Y002492D01*
X003244Y002536D01*
X003340Y002653D02*
X005260Y002653D01*
X005261Y002752D02*
X003369Y002752D01*
X003364Y002850D02*
X005261Y002850D01*
X005262Y002949D02*
X003320Y002949D01*
X003190Y003047D02*
X005262Y003047D01*
X005423Y003242D02*
X005418Y002158D01*
X005441Y002204D01*
X005627Y002358D02*
X006894Y002358D01*
X006971Y002456D02*
X005579Y002456D01*
X005580Y002555D02*
X006653Y002555D01*
X006550Y002653D02*
X005580Y002653D01*
X005581Y002752D02*
X006543Y002752D01*
X006543Y002949D02*
X005582Y002949D01*
X005582Y003047D02*
X006562Y003047D01*
X006763Y003242D02*
X006870Y003349D01*
X007214Y003349D01*
X007214Y003356D01*
X007212Y003782D01*
X007212Y004173D01*
X007448Y004173D01*
X007450Y004443D01*
X008485Y004443D01*
X008473Y003783D01*
X008473Y003777D01*
X008473Y003783D02*
X008490Y003783D01*
X008490Y004592D01*
X009185Y004586D01*
X009299Y004589D01*
X009314Y004581D01*
X009315Y004589D01*
X009327Y004550D01*
X009314Y004581D02*
X009329Y004585D01*
X009312Y002723D01*
X009312Y002603D01*
X008981Y002603D01*
X008671Y002603D01*
X008671Y002595D01*
X008671Y002517D01*
X008671Y002262D01*
X008373Y002262D01*
X008373Y002459D02*
X008455Y002459D01*
X008455Y002779D01*
X008466Y002789D01*
X008455Y002779D02*
X008455Y003114D01*
X008747Y003114D01*
X008984Y003351D01*
X009478Y003343D02*
X011396Y003343D01*
X011396Y003441D02*
X009479Y003441D01*
X009480Y003540D02*
X011396Y003540D01*
X011396Y003638D02*
X009481Y003638D01*
X009482Y003737D02*
X011396Y003737D01*
X011396Y003835D02*
X009483Y003835D01*
X009483Y003934D02*
X011396Y003934D01*
X011396Y004032D02*
X009484Y004032D01*
X009485Y004131D02*
X011396Y004131D01*
X011396Y004229D02*
X009486Y004229D01*
X009487Y004328D02*
X011396Y004328D01*
X011396Y004426D02*
X009488Y004426D01*
X009494Y004525D02*
X011396Y004525D01*
X011396Y004623D02*
X009490Y004623D01*
X009419Y004722D02*
X011396Y004722D01*
X011396Y004820D02*
X007450Y004820D01*
X007450Y004919D02*
X011397Y004919D01*
X011396Y004832D02*
X011396Y004832D01*
X011556Y004766D02*
X011558Y005192D01*
X011558Y005655D01*
X011975Y005655D01*
X011275Y005650D01*
X009486Y006903D01*
X010012Y006089D01*
X010481Y006593D02*
X001482Y006593D01*
X001482Y006495D02*
X010580Y006495D01*
X010678Y006396D02*
X001482Y006396D01*
X001482Y006298D02*
X010777Y006298D01*
X010875Y006199D02*
X001482Y006199D01*
X001483Y006101D02*
X010974Y006101D01*
X011072Y006002D02*
X001483Y006002D01*
X001483Y005904D02*
X011171Y005904D01*
X011269Y005805D02*
X001483Y005805D01*
X001483Y005707D02*
X011368Y005707D01*
X011466Y005608D02*
X001483Y005608D01*
X001484Y005510D02*
X011565Y005510D01*
X011663Y005411D02*
X001484Y005411D01*
X001484Y005313D02*
X011762Y005313D01*
X011860Y005214D02*
X001484Y005214D01*
X001484Y005157D02*
X001478Y008369D01*
X007487Y008369D01*
X007487Y008368D01*
X009535Y007539D01*
X011917Y005157D01*
X001484Y005157D01*
X001398Y005017D02*
X000836Y005017D01*
X000836Y004919D02*
X002164Y004919D01*
X002107Y004820D02*
X001815Y004820D01*
X001790Y004845D02*
X001684Y004889D01*
X001569Y004889D01*
X001463Y004845D01*
X001382Y004764D01*
X001338Y004658D01*
X001338Y004543D01*
X001382Y004437D01*
X001463Y004356D01*
X001569Y004312D01*
X001684Y004312D01*
X001790Y004356D01*
X001871Y004437D01*
X001915Y004543D01*
X001915Y004658D01*
X001871Y004764D01*
X001790Y004845D01*
X001889Y004722D02*
X002107Y004722D01*
X002056Y004623D02*
X001915Y004623D01*
X001907Y004525D02*
X001996Y004525D01*
X001980Y004426D02*
X001860Y004426D01*
X001998Y004328D02*
X001721Y004328D01*
X001533Y004328D02*
X000836Y004328D01*
X000836Y004426D02*
X001393Y004426D01*
X001346Y004525D02*
X000836Y004525D01*
X000836Y004623D02*
X001338Y004623D01*
X001364Y004722D02*
X000836Y004722D01*
X000836Y004820D02*
X001438Y004820D01*
X001418Y004997D02*
X001418Y004997D01*
X001324Y005116D02*
X000836Y005116D01*
X000836Y005214D02*
X001324Y005214D01*
X001324Y005313D02*
X000836Y005313D01*
X000836Y005411D02*
X001324Y005411D01*
X001324Y005510D02*
X000836Y005510D01*
X000836Y005608D02*
X001323Y005608D01*
X001323Y005707D02*
X000836Y005707D01*
X000836Y005805D02*
X001323Y005805D01*
X001323Y005904D02*
X000836Y005904D01*
X000836Y006002D02*
X001323Y006002D01*
X001323Y006101D02*
X001307Y006101D01*
X001100Y006101D02*
X001003Y006101D01*
X001003Y006199D02*
X001100Y006199D01*
X001100Y006298D02*
X001003Y006298D01*
X001003Y006396D02*
X001100Y006396D01*
X001100Y006583D02*
X001003Y006583D01*
X001003Y006980D01*
X000836Y006980D01*
X000836Y011850D01*
X001038Y011850D01*
X000954Y011767D01*
X000954Y011634D01*
X003361Y009227D01*
X003375Y009195D01*
X003406Y009182D01*
X003430Y009158D01*
X003465Y009158D01*
X005020Y008529D01*
X001544Y008529D01*
X001478Y008529D01*
X001412Y008529D01*
X001412Y008528D01*
X001412Y008528D01*
X001365Y008482D01*
X001318Y008435D01*
X001318Y008435D01*
X001318Y008435D01*
X001318Y008368D01*
X001318Y008302D01*
X001318Y008302D01*
X001321Y006961D01*
X001306Y006970D01*
X001268Y006980D01*
X001100Y006980D01*
X001100Y006583D01*
X001100Y006593D02*
X001003Y006593D01*
X001003Y006692D02*
X001100Y006692D01*
X001100Y006790D02*
X001003Y006790D01*
X001003Y006889D02*
X001100Y006889D01*
X001321Y006987D02*
X000836Y006987D01*
X000836Y007086D02*
X001321Y007086D01*
X001321Y007184D02*
X000836Y007184D01*
X000836Y007283D02*
X001320Y007283D01*
X001320Y007381D02*
X000836Y007381D01*
X000836Y007480D02*
X001320Y007480D01*
X001320Y007578D02*
X000836Y007578D01*
X000836Y007677D02*
X001320Y007677D01*
X001319Y007775D02*
X000836Y007775D01*
X000836Y007874D02*
X001319Y007874D01*
X001319Y007972D02*
X000836Y007972D01*
X000836Y008071D02*
X001319Y008071D01*
X001319Y008169D02*
X000836Y008169D01*
X000836Y008268D02*
X001319Y008268D01*
X001318Y008366D02*
X000836Y008366D01*
X000836Y008465D02*
X001348Y008465D01*
X001478Y008366D02*
X007493Y008366D01*
X007736Y008268D02*
X001479Y008268D01*
X001479Y008169D02*
X007979Y008169D01*
X008012Y008329D02*
X011487Y008329D01*
X011487Y008328D01*
X011554Y008329D01*
X011620Y008329D01*
X011667Y008376D01*
X011713Y008422D01*
X011713Y008422D01*
X011714Y008423D01*
X011713Y008489D01*
X011713Y008555D01*
X011711Y009896D01*
X011726Y009887D01*
X011764Y009877D01*
X011932Y009877D01*
X011932Y010274D01*
X012029Y010274D01*
X012029Y009877D01*
X012147Y009877D01*
X012147Y005891D01*
X012139Y005900D01*
X012033Y005944D01*
X011918Y005944D01*
X011812Y005900D01*
X011731Y005819D01*
X011729Y005815D01*
X011492Y005815D01*
X011489Y005812D01*
X009671Y007630D01*
X009657Y007662D01*
X009626Y007675D01*
X009602Y007699D01*
X009567Y007699D01*
X008012Y008329D01*
X008162Y008268D02*
X012147Y008268D01*
X012147Y008366D02*
X011657Y008366D01*
X011620Y008329D02*
X011620Y008329D01*
X011620Y008329D01*
X011713Y008465D02*
X012147Y008465D01*
X012147Y008563D02*
X011713Y008563D01*
X011713Y008555D02*
X011713Y008555D01*
X011713Y008662D02*
X012147Y008662D01*
X012147Y008760D02*
X011713Y008760D01*
X011713Y008859D02*
X012147Y008859D01*
X012147Y008957D02*
X011713Y008957D01*
X011712Y009056D02*
X012147Y009056D01*
X012147Y009154D02*
X011712Y009154D01*
X011712Y009253D02*
X012147Y009253D01*
X012147Y009351D02*
X011712Y009351D01*
X011712Y009450D02*
X012147Y009450D01*
X012147Y009548D02*
X011711Y009548D01*
X011711Y009647D02*
X012147Y009647D01*
X012147Y009745D02*
X011711Y009745D01*
X011711Y009844D02*
X012147Y009844D01*
X012029Y009942D02*
X011932Y009942D01*
X011932Y010041D02*
X012029Y010041D01*
X012029Y010139D02*
X011932Y010139D01*
X011932Y010238D02*
X012029Y010238D01*
X011981Y010322D02*
X011981Y008507D01*
X012147Y008169D02*
X008405Y008169D01*
X008222Y008071D02*
X001479Y008071D01*
X001479Y007972D02*
X008466Y007972D01*
X008649Y008071D02*
X012147Y008071D01*
X012147Y007972D02*
X008892Y007972D01*
X008952Y007775D02*
X001479Y007775D01*
X001480Y007677D02*
X009195Y007677D01*
X009135Y007874D02*
X012147Y007874D01*
X012147Y007775D02*
X009378Y007775D01*
X009624Y007677D02*
X012147Y007677D01*
X012147Y007578D02*
X009722Y007578D01*
X009821Y007480D02*
X012147Y007480D01*
X012147Y007381D02*
X009919Y007381D01*
X010018Y007283D02*
X012147Y007283D01*
X012147Y007184D02*
X010116Y007184D01*
X010215Y007086D02*
X012147Y007086D01*
X012147Y006987D02*
X010313Y006987D01*
X010412Y006889D02*
X012147Y006889D01*
X012147Y006790D02*
X010510Y006790D01*
X010609Y006692D02*
X012147Y006692D01*
X012147Y006593D02*
X010707Y006593D01*
X010806Y006495D02*
X012147Y006495D01*
X012147Y006396D02*
X010904Y006396D01*
X011003Y006298D02*
X012147Y006298D01*
X012147Y006199D02*
X011101Y006199D01*
X011200Y006101D02*
X012147Y006101D01*
X012147Y006002D02*
X011298Y006002D01*
X011397Y005904D02*
X011821Y005904D01*
X012129Y005904D02*
X012147Y005904D01*
X011556Y004766D02*
X011556Y003140D01*
X011559Y002915D01*
X010709Y002710D01*
X010450Y002712D01*
X010431Y002690D01*
X010438Y002661D01*
X010428Y002702D01*
X010419Y002711D02*
X010709Y002710D01*
X010587Y002949D02*
X011017Y002949D01*
X011397Y003047D02*
X009475Y003047D01*
X009477Y002949D02*
X010269Y002949D01*
X010450Y002712D02*
X009312Y002723D01*
X009317Y002932D01*
X009476Y003146D02*
X011396Y003146D01*
X011396Y003244D02*
X009477Y003244D01*
X009623Y003032D02*
X009656Y003035D01*
X009663Y002555D02*
X009472Y002555D01*
X009392Y002456D02*
X009663Y002456D01*
X009664Y002358D02*
X009234Y002358D01*
X009305Y002259D02*
X009664Y002259D01*
X009665Y002161D02*
X009308Y002161D01*
X009308Y002062D02*
X009665Y002062D01*
X009888Y001809D02*
X009456Y001771D01*
X009662Y001570D02*
X009668Y001570D01*
X009668Y001471D02*
X008982Y001471D01*
X009016Y001570D02*
X009250Y001570D01*
X009186Y001668D02*
X009016Y001668D01*
X008976Y001767D02*
X009167Y001767D01*
X009000Y001865D02*
X008962Y001865D01*
X008962Y001964D02*
X009000Y001964D01*
X009000Y002062D02*
X008962Y002062D01*
X008962Y002072D02*
X008653Y002072D01*
X008653Y001933D01*
X008663Y001897D01*
X008565Y001856D01*
X008530Y001821D01*
X008532Y001993D01*
X008536Y001997D01*
X008536Y002102D01*
X008737Y002102D01*
X008745Y002110D01*
X008962Y002110D01*
X008962Y002072D01*
X008653Y002062D02*
X008536Y002062D01*
X008531Y001964D02*
X008653Y001964D01*
X008586Y001865D02*
X008530Y001865D01*
X008373Y002065D02*
X008366Y001555D01*
X008163Y001452D01*
X008164Y001483D01*
X008176Y001780D02*
X007812Y001780D01*
X007813Y000963D01*
X007714Y000960D01*
X007591Y000855D01*
X007584Y000862D01*
X007309Y000782D02*
X007143Y000782D01*
X007084Y000683D02*
X007355Y000683D01*
X007490Y000585D02*
X003283Y000585D01*
X003283Y000683D02*
X006656Y000683D01*
X006597Y000782D02*
X003282Y000782D01*
X003281Y000880D02*
X006582Y000880D01*
X006600Y000979D02*
X003281Y000979D01*
X003280Y001077D02*
X006663Y001077D01*
X006704Y001119D02*
X006704Y001119D01*
X006704Y001119D01*
X006704Y001176D02*
X003279Y001176D01*
X003278Y001274D02*
X006704Y001274D01*
X006704Y001373D02*
X003278Y001373D01*
X003277Y001471D02*
X006704Y001471D01*
X006704Y001570D02*
X003276Y001570D01*
X003276Y001668D02*
X006704Y001668D01*
X006704Y001767D02*
X003275Y001767D01*
X003274Y001865D02*
X006704Y001865D01*
X006704Y001964D02*
X005631Y001964D01*
X005690Y002062D02*
X006697Y002062D01*
X006727Y002161D02*
X005706Y002161D01*
X005689Y002259D02*
X006818Y002259D01*
X006872Y002067D02*
X007217Y002513D01*
X007214Y003356D01*
X007053Y003638D02*
X006485Y003638D01*
X006485Y003540D02*
X006591Y003540D01*
X006583Y003441D02*
X006456Y003441D01*
X006485Y003737D02*
X007052Y003737D01*
X007052Y003835D02*
X006485Y003835D01*
X006517Y003934D02*
X007052Y003934D01*
X007052Y003847D02*
X007052Y003847D01*
X007052Y004032D02*
X006787Y004032D01*
X006867Y004131D02*
X007052Y004131D01*
X007052Y004229D02*
X006867Y004229D01*
X006867Y004328D02*
X007140Y004328D01*
X007289Y004426D02*
X006867Y004426D01*
X006867Y004525D02*
X007304Y004525D01*
X007290Y004510D02*
X007290Y004510D01*
X007333Y004623D02*
X008330Y004623D01*
X008394Y004722D02*
X007417Y004722D01*
X007165Y004725D02*
X006707Y004725D01*
X006707Y004178D01*
X006535Y004178D01*
X006070Y003712D01*
X006163Y004032D02*
X005552Y004032D01*
X005575Y003978D02*
X005502Y004154D01*
X005367Y004289D01*
X005190Y004362D01*
X004999Y004362D01*
X004823Y004289D01*
X004688Y004154D01*
X004615Y003978D01*
X004615Y003787D01*
X004688Y003610D01*
X004823Y003475D01*
X004999Y003402D01*
X005190Y003402D01*
X005367Y003475D01*
X005502Y003610D01*
X005575Y003787D01*
X005575Y003978D01*
X005575Y003934D02*
X005655Y003934D01*
X005655Y003835D02*
X005575Y003835D01*
X005554Y003737D02*
X005655Y003737D01*
X005655Y003638D02*
X005513Y003638D01*
X005431Y003540D02*
X005655Y003540D01*
X005683Y003441D02*
X005284Y003441D01*
X005423Y003242D02*
X006763Y003242D01*
X006851Y002850D02*
X005581Y002850D01*
X005423Y003242D02*
X003211Y003242D01*
X002877Y003576D01*
X002877Y003902D01*
X002609Y003934D02*
X001002Y003934D01*
X001083Y003835D02*
X002609Y003835D01*
X002609Y003737D02*
X001129Y003737D01*
X001154Y003638D02*
X002670Y003638D01*
X002717Y003540D02*
X000836Y003540D01*
X001148Y003441D02*
X002786Y003441D01*
X002884Y003343D02*
X001113Y003343D01*
X001053Y003244D02*
X002983Y003244D01*
X003081Y003146D02*
X000954Y003146D01*
X000836Y003047D02*
X002191Y003047D01*
X002057Y002949D02*
X000930Y002949D01*
X001029Y002850D02*
X002012Y002850D01*
X002006Y002752D02*
X001080Y002752D01*
X001120Y002653D02*
X002033Y002653D01*
X002109Y002555D02*
X001120Y002555D01*
X002294Y002778D02*
X003081Y002780D01*
X002971Y003047D02*
X002397Y003047D01*
X002531Y002949D02*
X002841Y002949D01*
X002898Y002555D02*
X002479Y002555D01*
X003271Y002358D02*
X005209Y002358D01*
X005148Y002259D02*
X003271Y002259D01*
X003272Y002161D02*
X005130Y002161D01*
X005146Y002062D02*
X003273Y002062D01*
X003273Y001964D02*
X005205Y001964D01*
X004716Y001728D02*
X004556Y001708D01*
X004284Y003441D02*
X004905Y003441D01*
X004758Y003540D02*
X004431Y003540D01*
X004513Y003638D02*
X004676Y003638D01*
X004635Y003737D02*
X004554Y003737D01*
X004575Y003835D02*
X004615Y003835D01*
X004615Y003934D02*
X004575Y003934D01*
X004552Y004032D02*
X004637Y004032D01*
X004678Y004131D02*
X004511Y004131D01*
X004427Y004229D02*
X004763Y004229D01*
X004689Y004328D02*
X004916Y004328D01*
X004837Y004426D02*
X006547Y004426D01*
X006547Y004525D02*
X006485Y004525D01*
X006485Y004623D02*
X006547Y004623D01*
X006547Y004722D02*
X006485Y004722D01*
X006485Y004820D02*
X006576Y004820D01*
X006485Y004919D02*
X006874Y004919D01*
X007162Y004860D02*
X007165Y004725D01*
X007418Y003991D02*
X007924Y003991D01*
X007924Y003980D01*
X007418Y003991D02*
X007418Y002459D01*
X007471Y002459D01*
X007166Y002051D01*
X007164Y001482D01*
X007236Y001186D02*
X007477Y001337D01*
X007475Y001941D01*
X007737Y002262D01*
X007979Y002262D01*
X007979Y002459D02*
X007471Y002459D01*
X007578Y002619D02*
X007578Y003226D01*
X007610Y003193D01*
X007685Y003193D01*
X007685Y003118D01*
X007939Y003118D01*
X007939Y003109D01*
X007685Y003109D01*
X007685Y002969D01*
X007696Y002931D01*
X007715Y002897D01*
X007743Y002869D01*
X007777Y002849D01*
X007816Y002839D01*
X007939Y002839D01*
X007939Y003109D01*
X007948Y003109D01*
X007948Y002839D01*
X008072Y002839D01*
X008110Y002849D01*
X008144Y002869D01*
X008172Y002897D01*
X008192Y002931D01*
X008202Y002969D01*
X008202Y003109D01*
X007948Y003109D01*
X007948Y003118D01*
X008202Y003118D01*
X008202Y003193D01*
X008215Y003193D01*
X008218Y003191D01*
X008237Y003191D01*
X008237Y002943D01*
X008295Y002885D01*
X008295Y002624D01*
X008254Y002648D01*
X008203Y002662D01*
X008176Y002662D01*
X008176Y002459D01*
X008176Y002459D01*
X008176Y002662D01*
X008149Y002662D01*
X008098Y002648D01*
X008051Y002621D01*
X008049Y002619D01*
X008047Y002622D01*
X007911Y002622D01*
X007908Y002619D01*
X007578Y002619D01*
X007578Y002653D02*
X008117Y002653D01*
X008176Y002653D02*
X008176Y002653D01*
X008235Y002653D02*
X008295Y002653D01*
X008295Y002752D02*
X007578Y002752D01*
X007578Y002850D02*
X007776Y002850D01*
X007726Y002767D02*
X007944Y003114D01*
X008176Y002881D01*
X008176Y002459D01*
X008176Y002262D01*
X008176Y002459D01*
X008176Y002459D01*
X008176Y002262D01*
X008176Y002262D01*
X008176Y002358D02*
X008176Y002358D01*
X008176Y002456D02*
X008176Y002456D01*
X008176Y002555D02*
X008176Y002555D01*
X008111Y002850D02*
X008295Y002850D01*
X008237Y002949D02*
X008196Y002949D01*
X008202Y003047D02*
X008237Y003047D01*
X008237Y003146D02*
X008202Y003146D01*
X007948Y003047D02*
X007939Y003047D01*
X007939Y002949D02*
X007948Y002949D01*
X007939Y002850D02*
X007948Y002850D01*
X007691Y002949D02*
X007578Y002949D01*
X007578Y003047D02*
X007685Y003047D01*
X007685Y003146D02*
X007578Y003146D01*
X006889Y002752D02*
X006851Y002752D01*
X006851Y002653D02*
X006889Y002653D01*
X006889Y002555D02*
X006851Y002555D01*
X006872Y002067D02*
X006864Y002063D01*
X006864Y001185D01*
X007215Y001184D01*
X007236Y001186D01*
X007307Y001019D02*
X006870Y001014D01*
X006870Y000877D01*
X007307Y001019D02*
X007546Y001175D01*
X007650Y001177D01*
X007650Y001191D01*
X007650Y001883D01*
X007979Y002065D01*
X008176Y002065D02*
X008176Y001780D01*
X008442Y001373D02*
X008559Y001373D01*
X008392Y001274D02*
X009669Y001274D01*
X009670Y001176D02*
X008248Y001176D01*
X008077Y001176D02*
X007973Y001176D01*
X007973Y001077D02*
X009670Y001077D01*
X009671Y000979D02*
X007973Y000979D01*
X007956Y000880D02*
X009672Y000880D01*
X009672Y000782D02*
X007873Y000782D01*
X007827Y000683D02*
X009673Y000683D01*
X009673Y000585D02*
X007692Y000585D01*
X008395Y000673D02*
X008424Y000664D01*
X008457Y000627D01*
X008897Y001373D02*
X009669Y001373D01*
X009888Y001809D02*
X010222Y002260D01*
X010191Y002289D01*
X009002Y003840D02*
X009010Y004255D01*
X008984Y003863D02*
X009002Y003840D01*
X008495Y003778D02*
X008490Y003783D01*
X010491Y004165D02*
X010508Y004178D01*
X010383Y006692D02*
X001481Y006692D01*
X001481Y006790D02*
X010284Y006790D01*
X010186Y006889D02*
X001481Y006889D01*
X001481Y006987D02*
X010087Y006987D01*
X009989Y007086D02*
X001481Y007086D01*
X001481Y007184D02*
X009890Y007184D01*
X009792Y007283D02*
X001480Y007283D01*
X001480Y007381D02*
X009693Y007381D01*
X009595Y007480D02*
X001480Y007480D01*
X001480Y007578D02*
X009438Y007578D01*
X009486Y006903D02*
X005464Y007652D01*
X008807Y010996D01*
X010760Y009732D01*
X002272Y007125D01*
X001626Y006883D01*
X001479Y007874D02*
X008709Y007874D01*
X011553Y008489D02*
X011547Y011700D01*
X001114Y011700D01*
X003496Y009318D01*
X005544Y008489D01*
X005544Y008489D01*
X011553Y008489D01*
X011553Y008563D02*
X005361Y008563D01*
X005118Y008662D02*
X011553Y008662D01*
X011553Y008760D02*
X004874Y008760D01*
X004691Y008662D02*
X000836Y008662D01*
X000836Y008760D02*
X004448Y008760D01*
X004388Y008957D02*
X011553Y008957D01*
X011553Y008859D02*
X004631Y008859D01*
X004935Y008563D02*
X000836Y008563D01*
X000836Y008859D02*
X004205Y008859D01*
X004145Y009056D02*
X011552Y009056D01*
X011552Y009154D02*
X003902Y009154D01*
X003962Y008957D02*
X000836Y008957D01*
X000836Y009056D02*
X003719Y009056D01*
X003659Y009253D02*
X011552Y009253D01*
X011552Y009351D02*
X003464Y009351D01*
X003365Y009450D02*
X011552Y009450D01*
X011551Y009548D02*
X003267Y009548D01*
X003168Y009647D02*
X011551Y009647D01*
X011551Y009745D02*
X003070Y009745D01*
X002971Y009844D02*
X011551Y009844D01*
X011551Y009942D02*
X002873Y009942D01*
X002774Y010041D02*
X011551Y010041D01*
X011550Y010139D02*
X002676Y010139D01*
X002577Y010238D02*
X011550Y010238D01*
X011550Y010336D02*
X002479Y010336D01*
X002380Y010435D02*
X011550Y010435D01*
X011550Y010533D02*
X002282Y010533D01*
X002183Y010632D02*
X011549Y010632D01*
X011549Y010730D02*
X002085Y010730D01*
X001986Y010829D02*
X011549Y010829D01*
X011549Y010927D02*
X001888Y010927D01*
X001789Y011026D02*
X011549Y011026D01*
X011549Y011124D02*
X001691Y011124D01*
X001592Y011223D02*
X011548Y011223D01*
X011548Y011321D02*
X001494Y011321D01*
X001395Y011420D02*
X011548Y011420D01*
X011548Y011518D02*
X001297Y011518D01*
X001198Y011617D02*
X011548Y011617D01*
X011708Y011617D02*
X012147Y011617D01*
X012147Y011715D02*
X011707Y011715D01*
X011707Y011701D02*
X011707Y011767D01*
X011660Y011814D01*
X012147Y011814D01*
X012147Y011850D02*
X012147Y010768D01*
X012029Y010768D01*
X012029Y010371D01*
X011932Y010371D01*
X011932Y010768D01*
X011764Y010768D01*
X011726Y010757D01*
X011709Y010748D01*
X011707Y011701D01*
X011707Y011767D02*
X011707Y011767D01*
X011707Y011767D01*
X011660Y011814D02*
X011624Y011850D01*
X012147Y011850D01*
X012147Y011518D02*
X011708Y011518D01*
X011708Y011420D02*
X012147Y011420D01*
X012147Y011321D02*
X011708Y011321D01*
X011708Y011223D02*
X012147Y011223D01*
X012147Y011124D02*
X011709Y011124D01*
X011709Y011026D02*
X012147Y011026D01*
X012147Y010927D02*
X011709Y010927D01*
X011709Y010829D02*
X012147Y010829D01*
X012029Y010730D02*
X011932Y010730D01*
X011932Y010632D02*
X012029Y010632D01*
X012029Y010533D02*
X011932Y010533D01*
X011932Y010435D02*
X012029Y010435D01*
X006070Y004736D02*
X005782Y004955D01*
X003067Y004955D01*
X003062Y004796D01*
X002836Y004793D01*
X002267Y004796D01*
X002268Y004428D01*
X002059Y004229D02*
X000836Y004229D01*
X000836Y004131D02*
X002635Y004131D01*
X002609Y004032D02*
X000859Y004032D01*
X002478Y004229D02*
X002670Y004229D01*
X002609Y004328D02*
X002539Y004328D01*
X002557Y004426D02*
X002609Y004426D01*
X002609Y004525D02*
X002540Y004525D01*
X002481Y004623D02*
X002609Y004623D01*
X002877Y004493D02*
X003419Y004493D01*
X003404Y004705D01*
X003959Y004700D01*
X004610Y004607D01*
X004875Y004722D02*
X005655Y004722D01*
X005655Y004623D02*
X004899Y004623D01*
X004888Y004525D02*
X005655Y004525D01*
X005427Y004229D02*
X006360Y004229D01*
X006262Y004131D02*
X005511Y004131D01*
X005273Y004328D02*
X006459Y004328D01*
X004531Y004328D02*
X004273Y004328D01*
X004383Y004426D02*
X003698Y004426D01*
X003691Y004525D02*
X004057Y004525D01*
X003916Y004328D02*
X003731Y004328D01*
X003731Y004229D02*
X003763Y004229D01*
X003423Y004131D02*
X003385Y004131D01*
X003385Y004032D02*
X003423Y004032D01*
X003423Y003934D02*
X003385Y003934D01*
X003615Y003835D02*
X003144Y003835D01*
X003144Y003737D02*
X003635Y003737D01*
X003676Y003638D02*
X003083Y003638D01*
X003140Y003540D02*
X003758Y003540D01*
X003905Y003441D02*
X003238Y003441D01*
X003246Y003558D02*
X003366Y003570D01*
X006566Y001485D02*
X006614Y001377D01*
X001544Y008529D02*
X001544Y008529D01*
X000836Y009154D02*
X003476Y009154D01*
X003336Y009253D02*
X000836Y009253D01*
X000836Y009351D02*
X003237Y009351D01*
X003139Y009450D02*
X000836Y009450D01*
X000836Y009548D02*
X003040Y009548D01*
X002942Y009647D02*
X000836Y009647D01*
X000836Y009745D02*
X002843Y009745D01*
X002745Y009844D02*
X000836Y009844D01*
X000836Y009942D02*
X002646Y009942D01*
X002548Y010041D02*
X000836Y010041D01*
X000836Y010139D02*
X002449Y010139D01*
X002351Y010238D02*
X000836Y010238D01*
X000836Y010336D02*
X002252Y010336D01*
X002154Y010435D02*
X000836Y010435D01*
X000836Y010533D02*
X002055Y010533D01*
X001957Y010632D02*
X000836Y010632D01*
X000836Y010730D02*
X001858Y010730D01*
X001760Y010829D02*
X000836Y010829D01*
X000836Y010927D02*
X001661Y010927D01*
X001563Y011026D02*
X000836Y011026D01*
X000836Y011124D02*
X001464Y011124D01*
X001366Y011223D02*
X000836Y011223D01*
X000836Y011321D02*
X001267Y011321D01*
X001169Y011420D02*
X000836Y011420D01*
X000836Y011518D02*
X001070Y011518D01*
X000972Y011617D02*
X000836Y011617D01*
X000836Y011715D02*
X000954Y011715D01*
X001001Y011814D02*
X000836Y011814D01*
D19*
X007924Y003980D03*
D20*
X007922Y003461D03*
D21*
X008490Y003783D03*
D22*
X008455Y003114D03*
X007944Y003114D03*
D23*
X007979Y002459D03*
X008176Y002459D03*
X008176Y002262D03*
X007979Y002262D03*
X007979Y002065D03*
X008176Y002065D03*
X008373Y002065D03*
X008373Y002262D03*
X008373Y002459D03*
D24*
X007726Y002767D03*
X008728Y001612D03*
X008163Y001452D03*
X007591Y000855D03*
X006870Y000877D03*
X007164Y001482D03*
X006566Y001485D03*
X005418Y002158D03*
X004556Y001708D03*
X003081Y002780D03*
X002294Y002778D03*
X003366Y003570D03*
X002268Y004428D03*
X001627Y004601D03*
X004610Y004607D03*
X007162Y004860D03*
X009010Y004255D03*
X009623Y003032D03*
X010222Y002260D03*
X010428Y002702D03*
X009456Y001771D03*
X008395Y000673D03*
X010508Y004178D03*
X011975Y005655D03*
X011981Y008507D03*
X001373Y001376D03*
M02*
